<svg xmlns="http://www.w3.org/2000/svg" width="362" height="362" viewBox="0 0 362 362" version="1.1"><path d="M 174.285 29.208 C 169.807 35.969, 163.744 45.550, 160.809 50.500 C 157.875 55.450, 153.547 62.318, 151.191 65.763 L 146.908 72.026 140.704 71.463 C 133.514 70.811, 71.549 73.043, 69.983 74.010 C 69.332 74.413, 71.491 79.657, 75.658 87.791 L 82.383 100.922 77.789 110.711 C 70.369 126.523, 67.206 138.309, 65.856 155.177 C 64.898 167.161, 65.546 173.775, 69.387 191.163 C 72.017 203.067, 82.017 221.997, 91.624 233.256 C 94.085 236.140, 100.689 242.463, 106.299 247.306 C 114.806 254.650, 118.825 257.253, 130.500 262.980 C 138.200 266.757, 147.975 271.061, 152.223 272.544 C 156.471 274.027, 160.602 275.749, 161.403 276.370 C 162.204 276.992, 165.423 282.652, 168.557 288.949 C 171.691 295.246, 174.937 301.080, 175.771 301.914 C 177.679 303.821, 177.946 303.476, 186.551 288 C 190.067 281.675, 193.520 276.202, 194.222 275.838 C 194.925 275.473, 198.200 274.644, 201.500 273.994 C 221.721 270.015, 241.037 261.702, 254.120 251.350 C 265.320 242.488, 266.936 240.871, 273.910 231.551 C 283.134 219.225, 286.260 214.004, 289.985 204.698 C 295.782 190.216, 297.069 183.146, 297.120 165.500 C 297.188 141.847, 294.706 130.392, 285.378 111.316 L 280.887 102.132 285.800 92.316 C 288.501 86.917, 291.675 80.925, 292.852 79 C 295.839 74.116, 295.608 72.372, 291.875 71.625 C 290.156 71.281, 272.494 70.994, 252.625 70.988 L 216.500 70.975 214.255 67.510 C 213.021 65.604, 209.469 59.197, 206.362 53.272 C 203.255 47.348, 198.298 38.450, 195.346 33.500 C 189.581 23.834, 188.860 22.578, 187.306 19.500 C 184.934 14.804, 182.742 16.439, 174.285 29.208 M 172.354 36.250 C 166.812 45.188, 161.051 54.671, 159.552 57.325 C 158.054 59.979, 152.452 68.754, 147.104 76.825 C 141.755 84.896, 134.648 96.225, 131.310 102 C 127.971 107.775, 123.307 115.798, 120.945 119.830 L 116.649 127.159 119.929 133.810 C 123.153 140.348, 123.236 140.424, 124.854 138.321 C 127.701 134.621, 144.785 106.999, 151.648 95 C 164.324 72.836, 166.230 69.671, 173.718 58.332 C 178.771 50.679, 181.786 47.005, 182.843 47.208 C 184.194 47.468, 199.686 69.390, 204.957 78.500 C 213.287 92.896, 218.986 102.495, 226.132 114.163 C 230.735 121.678, 236.075 130.559, 238 133.898 C 239.925 137.238, 241.725 139.975, 242 139.980 C 242.275 139.985, 243.937 136.819, 245.693 132.943 L 248.887 125.896 245.845 120.698 C 244.172 117.839, 241.120 113.250, 239.064 110.500 C 224.481 91.002, 210.789 69.509, 202.659 53.355 C 199.655 47.385, 195.578 39.800, 193.599 36.500 C 187.071 25.610, 183.507 20.097, 182.965 20.048 C 182.671 20.022, 177.896 27.313, 172.354 36.250 M 169.487 73.780 C 167.845 74.022, 163.664 80.194, 161.234 85.963 C 161.088 86.309, 170.876 86.629, 182.984 86.674 C 195.867 86.721, 205 86.371, 205 85.829 C 205 85.320, 203.431 82.451, 201.512 79.452 L 198.025 74 188.262 73.812 C 182.893 73.709, 176.925 73.593, 175 73.554 C 173.075 73.515, 170.594 73.617, 169.487 73.780 M 109.791 74.543 C 109.586 74.747, 102.687 74.985, 94.459 75.071 C 86.232 75.157, 78.042 75.452, 76.260 75.726 L 73.020 76.224 75.566 80.362 C 76.966 82.638, 80.612 89.675, 83.669 96 C 86.725 102.325, 90.863 110.425, 92.863 114 C 94.863 117.575, 99.054 126.575, 102.176 134 C 105.298 141.425, 110.507 153.575, 113.752 161 L 119.653 174.500 127.326 174.792 C 131.758 174.961, 135 174.679, 135 174.125 C 135 173.598, 134.596 173.017, 134.102 172.833 C 133.317 172.542, 124 153.684, 124 152.387 C 124 151.326, 111.119 125.103, 107.285 118.360 C 105.052 114.432, 102.311 108.807, 101.192 105.860 C 100.074 102.912, 98.478 99.150, 97.647 97.500 C 96.816 95.850, 95.848 93.331, 95.497 91.901 C 94.867 89.336, 94.949 89.294, 101.680 88.658 C 105.431 88.304, 114.830 88.011, 122.566 88.007 L 136.633 88 140.727 81.578 C 142.979 78.045, 144.545 74.879, 144.208 74.541 C 143.563 73.897, 110.435 73.898, 109.791 74.543 M 219 74.401 C 219 74.686, 220.790 77.750, 222.979 81.210 L 226.958 87.500 247.890 87.500 C 259.403 87.500, 269.120 87.795, 269.484 88.156 C 269.848 88.517, 268.313 92.653, 266.073 97.347 C 263.833 102.041, 262 106.201, 262 106.593 C 262 107.808, 245.392 142.689, 236.928 159.250 L 228.878 175 234.939 175 L 241.001 175 250.591 155.250 C 263.096 129.497, 272.728 110.198, 282.819 90.670 C 287.319 81.963, 291 74.753, 291 74.648 C 291 74.542, 274.800 74.327, 255 74.169 C 235.200 74.011, 219 74.115, 219 74.401 M 174.890 106.250 C 171.928 110.237, 166.481 116.687, 162.785 120.582 C 157.661 125.982, 156.342 127.942, 157.232 128.832 C 159.020 130.620, 160.206 130.223, 159.521 128.067 C 158.522 124.920, 163.164 126.023, 175.391 131.837 C 175.883 132.071, 175.981 130.969, 175.611 129.380 C 175.113 127.243, 175.205 126.887, 175.970 128 C 176.617 128.942, 177.279 129.128, 177.750 128.500 C 178.162 127.950, 179.175 127.372, 180 127.216 C 180.825 127.060, 182.892 125.323, 184.593 123.355 C 187.355 120.161, 187.635 119.258, 187.215 114.890 C 186.904 111.651, 187.126 110, 187.873 110 C 188.493 110, 189 110.938, 189 112.083 C 189 113.319, 189.509 113.987, 190.250 113.726 C 190.938 113.483, 191.438 112.546, 191.361 111.642 C 191.285 110.739, 191.634 110, 192.137 110 C 192.640 110, 192.384 108.710, 191.569 107.134 C 190.588 105.236, 189.028 104.056, 186.952 103.640 C 184.978 103.246, 183.622 102.270, 183.291 101.007 C 182.388 97.553, 180.452 98.762, 174.890 106.250 M 290.500 100 C 290.840 100.550, 291.512 101, 291.994 101 C 292.476 101, 294.090 101.464, 295.580 102.031 L 298.291 103.061 295.975 105.527 C 294.701 106.883, 293.922 108.255, 294.244 108.577 C 295.074 109.407, 299.255 107.027, 300.807 104.841 C 301.525 103.829, 302.734 103, 303.492 103 C 305.469 103, 310.367 101.034, 309.801 100.467 C 309.538 100.205, 307.016 100.428, 304.196 100.963 C 300.249 101.711, 298.110 101.597, 294.908 100.468 C 289.977 98.728, 289.695 98.698, 290.500 100 M 54.667 104.667 C 54.300 105.033, 54 106.158, 54 107.167 C 54 108.389, 53.251 109.013, 51.750 109.040 C 49.863 109.073, 50.065 109.366, 53 110.851 C 60.404 114.597, 61.215 115.185, 60.279 116.121 C 59.699 116.701, 57.666 116.295, 54.922 115.050 C 48.125 111.967, 46.777 112.723, 53.179 116.028 C 59.565 119.325, 60.884 120.723, 58.480 121.646 C 57.574 121.994, 56.490 123.205, 56.070 124.339 C 55.326 126.352, 55.247 126.338, 52.664 123.755 C 51.074 122.164, 50.258 120.491, 50.617 119.556 C 51.284 117.816, 48.099 117.327, 46.450 118.915 C 45.928 119.419, 44.375 120.032, 43 120.279 C 41.179 120.606, 41.518 120.765, 44.250 120.864 C 48.055 121.002, 49.235 122.312, 46.500 123.362 C 45.675 123.678, 45 124.851, 45 125.969 C 45 127.513, 44.341 128.005, 42.250 128.021 C 40.355 128.036, 41.647 128.800, 46.409 130.480 C 55.044 133.527, 55.633 134.104, 53.478 137.393 C 51.848 139.881, 50.025 140.848, 49.978 139.250 C 49.966 138.838, 49.115 137.406, 48.087 136.069 C 46.302 133.747, 46.140 133.717, 44.455 135.402 C 43.152 136.705, 41.819 137.001, 39.346 136.537 C 35.539 135.823, 35.037 136.414, 38.071 138.038 C 39.520 138.814, 41.019 138.840, 43.065 138.127 C 45.550 137.261, 46.144 137.400, 47.029 139.054 C 47.602 140.124, 48.969 141, 50.067 141 C 52.037 141, 53.809 143.525, 52.651 144.683 C 52.323 145.011, 49.425 144.541, 46.212 143.639 C 40.295 141.979, 36.167 141.501, 37.269 142.603 C 37.601 142.934, 40.939 144.001, 44.686 144.973 C 50.253 146.417, 51.560 147.140, 51.827 148.928 C 52.444 153.052, 54.481 150.339, 55.587 143.920 C 56.196 140.389, 57.648 134.745, 58.815 131.377 C 59.981 128.009, 61.219 123.480, 61.566 121.312 C 62.127 117.804, 62.644 117.213, 66.275 115.935 C 68.518 115.146, 70.552 113.893, 70.793 113.151 C 71.115 112.164, 70.543 112.253, 68.666 113.483 C 67.254 114.409, 65.391 115.016, 64.526 114.833 C 63.263 114.565, 63.635 113.468, 66.420 109.250 C 69.983 103.851, 70.092 102.702, 66.752 105.724 C 64.948 107.357, 64.687 107.357, 61.842 105.724 C 58.731 103.939, 55.823 103.510, 54.667 104.667 M 55.620 105.806 C 54.919 106.940, 57.175 111.101, 59.166 112.344 C 60.368 113.094, 61.274 113.017, 62.416 112.070 C 64.866 110.036, 64.318 108.522, 60.466 106.685 C 56.401 104.747, 56.287 104.726, 55.620 105.806 M 175 109.500 C 175 110.325, 175.450 111, 176 111 C 176.550 111, 177 110.325, 177 109.500 C 177 108.675, 176.550 108, 176 108 C 175.450 108, 175 108.675, 175 109.500 M 306.665 112.507 C 304.006 113.238, 301.568 114.099, 301.247 114.420 C 300.925 114.741, 299.778 114.216, 298.698 113.252 C 296.794 111.553, 296.757 111.576, 297.498 114 C 297.919 115.375, 299.103 117.694, 300.131 119.154 C 301.159 120.614, 302 122.302, 302 122.904 C 302 124.280, 304.267 124.333, 305.613 122.987 C 306.169 122.431, 309.297 121.552, 312.563 121.035 L 318.500 120.096 310.769 120.397 C 303.989 120.660, 302.967 120.471, 302.455 118.858 C 301.587 116.124, 302.493 115.315, 308.002 113.903 C 310.751 113.198, 313 112.257, 313 111.811 C 313 110.816, 312.698 110.850, 306.665 112.507 M 172.056 112.965 C 170.849 113.712, 170.838 114.100, 171.989 115.487 C 173.249 117.005, 173.418 117.004, 174.279 115.467 C 175.437 113.397, 173.991 111.770, 172.056 112.965 M 197.389 118.485 C 198.600 122.354, 199.756 123.138, 202.997 122.290 C 205.071 121.748, 204.987 121.540, 201.412 118.359 C 199.336 116.511, 197.336 115, 196.968 115 C 196.600 115, 196.789 116.568, 197.389 118.485 M 169.225 118.555 C 169.006 121.201, 170.443 121.894, 171.334 119.573 C 171.635 118.788, 171.329 117.688, 170.654 117.128 C 169.747 116.375, 169.374 116.747, 169.225 118.555 M 192.060 118.437 C 190.739 119.842, 189.961 121.294, 190.329 121.663 C 190.698 122.032, 191 121.822, 191 121.198 C 191 120.574, 191.671 120.320, 192.492 120.635 C 193.336 120.959, 194.245 120.526, 194.586 119.637 C 195.767 116.560, 194.422 115.921, 192.060 118.437 M 168.242 123.697 C 169.726 125.180, 171.291 126.042, 171.720 125.611 C 172.574 124.753, 168.457 121, 166.662 121 C 166.048 121, 166.759 122.214, 168.242 123.697 M 47 125.943 C 47 127.012, 48.013 128.599, 49.250 129.471 C 51.306 130.918, 51.529 130.916, 51.838 129.453 C 52.181 127.823, 49.382 124, 47.845 124 C 47.380 124, 47 124.874, 47 125.943 M 194.500 126.523 L 191.500 129.036 195.250 127.333 C 197.313 126.396, 199 125.263, 199 124.815 C 199 123.398, 197.594 123.931, 194.500 126.523 M 312.229 124.669 C 311.530 124.951, 310.273 126.505, 309.436 128.123 C 307.821 131.246, 305.487 131.069, 306.319 127.887 C 306.630 126.698, 306.292 126, 305.406 126 C 303.296 126, 303.714 129.656, 306.075 131.856 C 307.403 133.092, 307.763 134.028, 307.075 134.453 C 305.586 135.374, 305.721 141.708, 307.250 142.663 C 308.855 143.665, 321.993 143.743, 321.997 142.750 C 321.999 142.338, 320.875 142, 319.500 142 C 316.013 142, 316.336 139.668, 320.250 136.584 C 323.011 134.408, 323.195 134.021, 321.473 134.011 C 320.357 134.005, 318.441 134.703, 317.214 135.563 C 315.191 136.980, 314.837 136.980, 313.420 135.563 C 312.560 134.703, 311.214 134, 310.429 134 C 309.643 134, 309 133.550, 309 133 C 309 132.450, 309.395 132, 309.879 132 C 310.362 132, 311.325 130.629, 312.019 128.954 C 313.517 125.338, 316.644 125.272, 316.249 128.865 C 315.908 131.960, 319.375 131.355, 319.819 128.241 C 320.232 125.349, 315.765 123.247, 312.229 124.669 M 185.583 125.866 C 185.152 126.563, 185.070 127.403, 185.400 127.733 C 186.295 128.628, 187.271 127.312, 186.787 125.862 C 186.449 124.846, 186.213 124.846, 185.583 125.866 M 200.602 126.524 C 191.750 131.140, 186.131 135.177, 186.655 136.543 C 187.436 138.579, 190.092 138.364, 190.653 136.221 C 190.908 135.242, 194.016 132.669, 197.559 130.502 C 201.102 128.336, 204 126.211, 204 125.782 C 204 124.758, 203.978 124.763, 200.602 126.524 M 210 125.969 C 210 126.501, 209.333 126.681, 208.518 126.369 C 207.697 126.054, 205.133 127.228, 202.768 129.002 C 198.313 132.344, 199.398 132.440, 206.904 129.367 C 213.133 126.817, 211.306 128.821, 204.200 132.333 C 199.115 134.846, 196.894 135.494, 196.098 134.698 C 195.301 133.901, 195 133.910, 195 134.733 C 195 137.612, 199.192 136.949, 206.702 132.881 C 210.991 130.559, 214.692 128.506, 214.927 128.319 C 215.435 127.915, 211.830 125.078, 210.750 125.032 C 210.338 125.014, 210 125.436, 210 125.969 M 53.557 129.250 C 54.445 132.140, 54.648 132.335, 55.933 131.541 C 57.889 130.333, 57.154 127, 54.933 127 C 53.250 127, 52.994 127.419, 53.557 129.250 M 158.455 133.174 C 153.328 139.880, 151.486 144.064, 153.196 145.121 C 153.881 145.545, 154.147 146.186, 153.787 146.547 C 153.426 146.907, 151.381 146.218, 149.241 145.015 C 145.807 143.085, 144.860 142.960, 141.175 143.953 C 138.879 144.571, 137 145.401, 137 145.798 C 137 146.668, 140.999 149.318, 142.759 149.614 C 144.830 149.962, 153.305 156.406, 153.802 158.011 C 154.060 158.845, 152.995 158.340, 151.382 156.864 C 148.755 154.462, 142.770 150.907, 141.500 150.996 C 140.733 151.049, 135.604 147.692, 134.869 146.656 C 134.075 145.537, 127 147.785, 127 149.156 C 127 150.572, 135.021 167.867, 137.434 171.653 L 139.443 174.807 151.472 175.653 C 167.262 176.765, 167.412 177.309, 155.475 190.179 C 150.720 195.306, 143.633 203.325, 139.726 208 C 135.820 212.675, 130.796 218.435, 128.562 220.800 L 124.500 225.099 145 224.626 C 166.325 224.133, 174.092 224.868, 177.190 227.672 C 178.629 228.974, 179.498 229.098, 181.260 228.254 C 185.825 226.068, 187.966 225.827, 209.794 225.045 C 222.055 224.605, 232.290 224.043, 232.537 223.796 C 232.785 223.549, 226.450 213.497, 218.461 201.459 C 210.472 189.421, 204.068 178.880, 204.230 178.036 C 204.465 176.805, 206.445 176.443, 214.195 176.215 L 223.867 175.929 227.311 169.715 C 241.450 144.199, 242.203 142, 236.799 142 C 235.808 142, 232.479 139.412, 229.401 136.250 C 226.323 133.088, 224.081 131.032, 224.419 131.682 C 224.757 132.331, 224.013 133.591, 222.767 134.481 C 220.563 136.054, 220.553 136.139, 222.397 137.517 C 224.502 139.091, 226 138.643, 226 136.441 C 226 135.648, 226.422 135, 226.937 135 C 227.457 135, 227.611 136.624, 227.282 138.647 C 226.698 142.248, 226.728 142.286, 229.595 141.632 C 232.050 141.072, 232.254 141.165, 230.916 142.235 C 229.833 143.100, 229.428 144.765, 229.635 147.500 L 229.938 151.500 228.989 147.770 C 228.137 144.424, 224.958 140, 223.404 140 C 223.077 140, 221.451 140.967, 219.792 142.148 C 218.133 143.330, 215.086 144.392, 213.021 144.508 C 210.957 144.625, 207.788 145.458, 205.980 146.360 C 201.429 148.630, 200.976 148.358, 204.500 145.469 C 206.692 143.672, 207.044 143.009, 205.809 143.005 C 204.879 143.002, 203.840 143.450, 203.500 144 C 203.160 144.550, 202.470 145, 201.966 145 C 200.552 145, 202.138 138.663, 203.919 137.202 C 204.873 136.418, 204.230 136.517, 202.300 137.452 C 200.539 138.303, 198.480 139, 197.724 139 C 196.968 139, 195.258 140.197, 193.924 141.660 C 192.241 143.507, 192.005 144.139, 193.153 143.729 C 194.062 143.404, 195.637 143.767, 196.653 144.537 C 197.678 145.314, 197.958 145.951, 197.281 145.968 C 196.611 145.986, 196.322 146.675, 196.638 147.500 C 196.990 148.417, 196.638 149, 195.732 149 C 194.917 149, 192.731 149.280, 190.875 149.622 C 187.654 150.215, 187.591 150.171, 189.500 148.654 C 191.749 146.866, 191.821 146.920, 186.869 146.678 C 183.431 146.509, 183.286 146.627, 184.147 148.889 C 185.375 152.115, 184.464 152.724, 181.873 150.411 C 179.754 148.518, 179.741 148.520, 180.411 150.675 C 181.025 152.651, 180.832 152.782, 178.308 152.107 C 176.571 151.642, 174.585 151.856, 173.014 152.676 C 170.154 154.168, 164.465 154.301, 161.500 152.944 C 159.869 152.198, 160.146 152.053, 163 152.160 C 168.370 152.361, 170 152.091, 170 151 C 170 150.450, 169.438 149.984, 168.750 149.964 C 167.194 149.919, 161.092 145.012, 162.583 145.005 C 163.179 145.002, 163.980 145.313, 164.362 145.696 C 164.745 146.078, 165.607 146.494, 166.279 146.620 C 166.951 146.746, 168.990 147.170, 170.810 147.561 L 174.120 148.274 171.060 145.214 C 167.863 142.017, 166.613 138.604, 169.524 141.020 C 170.362 141.716, 171.338 141.995, 171.693 141.640 C 172.048 141.286, 173.182 141.760, 174.213 142.693 C 175.245 143.627, 177.008 144.531, 178.130 144.702 C 180.318 145.036, 180.183 144.710, 174.263 135.352 C 173.515 134.171, 171.400 132.922, 169.562 132.578 C 167.399 132.172, 166.038 131.254, 165.704 129.975 C 164.854 126.725, 162.638 127.703, 158.455 133.174 M 181.364 129.494 C 181.048 130.316, 180.388 130.740, 179.895 130.435 C 179.403 130.131, 179 130.557, 179 131.382 C 179 133.519, 180.965 134.452, 182.337 132.966 C 183.228 132.001, 183.208 131.871, 182.250 132.412 C 180.476 133.414, 180.699 131.444, 182.571 129.571 C 183.436 128.707, 183.647 128, 183.040 128 C 182.433 128, 181.679 128.672, 181.364 129.494 M 216.210 130.319 C 213.614 131.478, 213.175 133.554, 215.750 132.494 C 216.713 132.097, 218.287 131.547, 219.250 131.270 C 220.213 130.993, 221 130.444, 221 130.050 C 221 129.038, 218.806 129.161, 216.210 130.319 M 153.286 132.619 C 153.626 132.960, 153.251 133.892, 152.452 134.690 C 151.654 135.489, 151 136.823, 151 137.655 C 151 139.812, 153.269 138.776, 153.608 136.464 C 153.764 135.404, 154.368 134.377, 154.952 134.183 C 156.252 133.749, 155.308 132, 153.774 132 C 153.165 132, 152.945 132.279, 153.286 132.619 M 162.567 134.926 C 161.609 135.985, 160.977 137.589, 161.162 138.490 C 161.456 139.918, 161.791 139.858, 163.750 138.026 C 165.972 135.949, 166.796 133, 165.155 133 C 164.690 133, 163.526 133.867, 162.567 134.926 M 167.667 134.667 C 166.639 135.694, 166.878 139.194, 167.931 138.543 C 168.443 138.226, 169.196 138.507, 169.603 139.167 C 170.119 140.002, 170.559 139.779, 171.049 138.434 C 172.062 135.650, 169.517 132.816, 167.667 134.667 M 308.384 136.442 C 307.298 139.273, 308.455 141.500, 311.014 141.500 C 312.948 141.500, 313.423 141.056, 313.155 139.500 C 312.474 135.553, 309.465 133.624, 308.384 136.442 M 182 137.310 C 182 138.111, 182.926 139.009, 184.058 139.305 C 185.593 139.706, 186.035 139.421, 185.797 138.183 C 185.394 136.091, 182 135.311, 182 137.310 M 218 138 C 218 138.550, 218.450 139, 219 139 C 219.550 139, 220 138.550, 220 138 C 220 137.450, 219.550 137, 219 137 C 218.450 137, 218 137.450, 218 138 M 148.176 140.224 C 146.502 141.898, 146.712 142.553, 148.980 142.724 C 151.491 142.913, 152.375 141.556, 150.665 140.137 C 149.713 139.347, 149.030 139.370, 148.176 140.224 M 183.696 143.650 C 184.341 145.331, 185.007 145.310, 187.354 143.532 C 189.073 142.229, 188.989 142.134, 186.193 142.214 C 184.093 142.273, 183.335 142.709, 183.696 143.650 M 257.399 148.750 C 252.639 159.377, 252.520 158.004, 259.049 167.831 C 262.322 172.758, 265 177.056, 265 177.383 C 265 177.927, 229.690 178.544, 213.750 178.278 C 210.037 178.216, 207 178.359, 207 178.595 C 207 178.831, 209.037 182.087, 211.526 185.830 L 216.052 192.636 222.776 191.746 C 226.474 191.256, 243.130 191.129, 259.788 191.465 L 290.076 192.074 287.600 188.287 C 283.784 182.450, 274.992 167.731, 267.565 154.750 C 263.868 148.287, 260.648 143, 260.409 143 C 260.170 143, 258.816 145.588, 257.399 148.750 M 80.064 150.526 C 77.449 153.291, 74.791 156.522, 74.157 157.707 C 73.523 158.891, 71.991 160.004, 70.752 160.180 C 69.139 160.409, 68.410 161.280, 68.184 163.250 C 67.774 166.814, 68.936 166.724, 72.563 162.914 C 76.571 158.703, 78.654 157.656, 79.361 159.499 C 79.736 160.476, 78.435 161.833, 75.438 163.589 C 71.076 166.145, 69 168.572, 69 171.114 C 69 171.799, 70.610 170.479, 72.578 168.180 C 74.546 165.881, 76.866 164, 77.733 164 C 79.091 164, 79.059 164.277, 77.500 166 C 75.733 167.952, 75.753 168, 78.345 168 C 81.553 168, 81.618 168.382, 78.882 171.118 C 77.326 172.674, 76.563 172.911, 76.007 172.011 C 75.467 171.138, 75.054 171.104, 74.566 171.893 C 74.190 172.502, 72.784 173, 71.441 173 C 69.385 173, 69 173.483, 69 176.057 C 69 179.671, 70.939 188.131, 72.051 189.365 C 72.479 189.841, 73.596 188.716, 74.532 186.865 C 76.673 182.632, 86.266 166.671, 87.071 166 C 87.402 165.725, 90.085 162.165, 93.034 158.088 L 98.396 150.676 95.058 148.102 C 89.601 143.894, 85.748 144.517, 80.064 150.526 M 209.750 146.080 C 208.787 146.641, 208 147.477, 208 147.939 C 208 149.084, 211.324 148.740, 212.235 147.500 C 214.014 145.078, 212.730 144.345, 209.750 146.080 M 215 146.977 C 215 148.877, 209.739 151.391, 206.254 151.156 C 202.291 150.890, 193 153.665, 193 155.116 C 193 155.694, 193.762 155.663, 194.934 155.035 C 197.835 153.483, 200.318 153.728, 199.638 155.500 C 198.770 157.762, 200.569 157.304, 203.605 154.490 C 206.912 151.426, 208.192 152.103, 205.171 155.318 C 202.919 157.716, 202.435 159, 203.784 159 C 204.216 159, 205.380 157.627, 206.371 155.949 C 207.813 153.508, 208.453 153.131, 209.574 154.061 C 210.344 154.701, 211.754 154.925, 212.707 154.559 C 215.293 153.566, 213.612 154.942, 209.922 156.838 C 206.525 158.582, 205.876 160.601, 208.791 160.357 C 209.731 160.278, 212.708 159.869, 215.406 159.449 C 219.026 158.886, 220.125 158.989, 219.597 159.843 C 219.204 160.479, 217.559 161, 215.941 161 C 214.323 161, 213 161.450, 213 162 C 213 163.259, 224.677 163.331, 225.453 162.076 C 225.767 161.569, 224.689 160.202, 223.057 159.041 C 221.225 157.736, 220.307 156.363, 220.657 155.451 C 221.423 153.455, 219.229 151, 216.678 151 C 215.062 151, 214.867 150.733, 215.800 149.800 C 217.256 148.344, 217.380 146, 216 146 C 215.450 146, 215 146.440, 215 146.977 M 231.825 148.674 C 232.251 150.767, 232.503 151.019, 232.794 149.644 C 233.011 148.623, 232.751 147.351, 232.218 146.818 C 231.592 146.192, 231.452 146.849, 231.825 148.674 M 218.257 147.590 C 218.581 147.914, 221.228 149.714, 224.139 151.590 C 229.507 155.048, 232 155.812, 232 154 C 232 153.450, 231.116 153, 230.035 153 C 228.955 153, 227.568 152.061, 226.954 150.914 C 226.340 149.767, 225.590 149.076, 225.288 149.379 C 224.985 149.682, 223.796 149.270, 222.646 148.465 C 220.658 147.072, 217.012 146.346, 218.257 147.590 M 308 149.500 C 308.523 150.875, 308.624 152.014, 308.225 152.030 C 307.826 152.047, 308.290 152.521, 309.254 153.083 C 311.038 154.121, 322.749 154.584, 323.681 153.653 C 324.406 152.927, 322.993 147, 322.094 147 C 321.683 147, 321.545 148.350, 321.787 150 C 322.148 152.460, 321.875 153, 320.274 153 C 319.138 153, 317.756 151.850, 316.969 150.250 C 315.694 147.656, 315.596 147.623, 315.250 149.665 C 315.048 150.856, 314.247 152.075, 313.470 152.373 C 311.827 153.004, 309 150.509, 309 148.429 C 309 147.643, 308.561 147, 308.025 147 C 307.398 147, 307.389 147.893, 308 149.500 M 271.204 149.048 L 268.908 149.969 274.111 159.735 C 276.973 165.106, 280.287 170.850, 281.477 172.500 C 282.667 174.150, 285.177 178.106, 287.057 181.292 L 290.474 187.084 291.666 180.792 C 292.322 177.331, 293.165 170.675, 293.540 166 C 294.200 157.765, 294.141 157.426, 291.670 155.131 C 289.421 153.044, 288.744 152.894, 285.959 153.864 C 283.007 154.893, 282.596 154.736, 279.716 151.483 C 276.527 147.882, 275.117 147.478, 271.204 149.048 M 83.635 154.585 C 81.509 157.070, 80.012 159.345, 80.307 159.641 C 80.832 160.165, 88.172 152.622, 88.833 150.879 C 89.669 148.675, 87.158 150.465, 83.635 154.585 M 101.810 151.726 C 98.947 155.015, 82.412 179.450, 79.084 185.309 C 77.270 188.504, 76.041 191.375, 76.354 191.688 C 76.667 192.001, 93.064 192.478, 112.791 192.748 L 148.659 193.240 154.579 186.553 C 157.836 182.876, 160.650 179.447, 160.833 178.933 C 161.035 178.369, 149.276 178, 131.083 178 C 114.537 178, 101 177.753, 101 177.450 C 101 176.460, 103.938 171.193, 107.121 166.476 L 110.244 161.848 107.856 156.252 C 105.183 149.988, 104.056 149.145, 101.810 151.726 M 151.250 151.250 C 151.478 151.938, 152.514 152.664, 153.551 152.865 C 155.182 153.181, 155.256 153.013, 154.096 151.615 C 152.510 149.704, 150.656 149.466, 151.250 151.250 M 84.052 159.085 C 81.984 161.659, 81.120 163.520, 81.718 164.118 C 82.799 165.199, 86 164.258, 86 162.858 C 86 162.347, 84.987 162.451, 83.750 163.087 C 82.180 163.895, 82.633 163.063, 85.250 160.330 C 87.313 158.177, 89 156.097, 89 155.708 C 89 153.999, 87.093 155.301, 84.052 159.085 M 53.506 157.982 C 52.932 159.788, 52.195 159.923, 45.188 159.496 C 40.029 159.182, 38.322 159.320, 40 159.914 C 41.375 160.402, 44.075 160.852, 46 160.916 C 47.925 160.979, 50.159 161.447, 50.964 161.957 C 52.649 163.022, 53.585 172, 52.012 172 C 51.455 172, 51 171.303, 51 170.450 C 51 169.598, 50.313 167.573, 49.474 165.950 C 48.326 163.730, 47.243 163, 45.097 163 C 40.919 163, 39.332 165.332, 41.382 168.460 C 43.370 171.494, 43.395 172, 41.559 172 C 40.766 172, 39.797 172.520, 39.405 173.155 C 38.972 173.854, 39.129 174.038, 39.802 173.622 C 40.413 173.244, 43.858 173.237, 47.457 173.606 C 53.478 174.223, 54 174.465, 54 176.638 C 54 178.585, 53.484 179, 51.059 179 C 49.441 179, 47.792 179.527, 47.394 180.171 C 46.915 180.947, 46.400 180.609, 45.868 179.171 C 44.777 176.224, 43.396 176.442, 42.206 179.750 C 41.662 181.262, 40.251 183.512, 39.069 184.750 C 36.647 187.288, 38.386 187.865, 41.088 185.420 C 42.461 184.177, 43.278 184.078, 44.917 184.955 C 47.370 186.269, 47.591 187.559, 45.500 188.362 C 43.194 189.247, 43.714 191.625, 46.686 193.790 C 49.350 195.730, 49.354 195.753, 47.186 196.441 C 45.984 196.823, 45 197.554, 45 198.067 C 45 199.316, 46.723 199.257, 47.512 197.981 C 47.858 197.421, 49.797 197.045, 51.821 197.145 C 53.844 197.246, 56.285 196.983, 57.244 196.560 C 58.544 195.986, 59.213 196.389, 59.876 198.145 C 60.365 199.440, 60.606 200.774, 60.411 201.109 C 60.216 201.443, 57.292 201.968, 53.913 202.274 C 47.811 202.827, 44.819 204.152, 46.844 205.403 C 47.404 205.749, 48.144 205.575, 48.490 205.016 C 49.453 203.458, 59.263 203.795, 61.653 205.469 C 63.757 206.943, 65.499 211, 64.028 211 C 63.597 211, 62.627 210.085, 61.872 208.967 C 60.106 206.350, 54.151 205.444, 51.650 207.412 C 49.503 209.100, 50.249 211, 53.059 211 C 55.608 211, 55.564 213.040, 53 213.710 C 48.575 214.867, 51.376 215.542, 56.848 214.637 C 60.065 214.105, 63.552 214.002, 64.598 214.409 C 66.246 215.051, 66.032 215.360, 63 216.726 C 61.075 217.592, 58.876 218.346, 58.112 218.401 C 57.349 218.455, 56.224 219.316, 55.612 220.313 C 54.701 221.797, 54.952 222.502, 57 224.208 C 58.634 225.569, 59.067 226.442, 58.250 226.728 C 57.562 226.969, 57 227.523, 57 227.959 C 57 228.395, 59.845 227.719, 63.322 226.457 C 67.309 225.010, 70.161 224.482, 71.044 225.027 C 72.230 225.760, 72.219 225.960, 70.972 226.336 C 65.244 228.062, 59.716 230.405, 60.644 230.715 C 61.255 230.918, 64.107 230.191, 66.982 229.099 C 72.874 226.860, 74.153 227.242, 77.755 232.312 C 80.326 235.931, 79.428 237.575, 75.429 236.571 C 73.388 236.059, 72.996 235.604, 73.855 234.745 C 77.026 231.574, 72.726 229.013, 67.542 230.984 C 64.491 232.144, 61.862 234.967, 62.648 236.239 C 63.545 237.691, 65 236.990, 65 235.107 C 65 233.032, 66.853 232, 70.582 232 C 73.890 232, 73.619 233.629, 70 235.500 C 66.636 237.239, 65.985 238.457, 68.916 237.527 C 72.870 236.272, 72.482 239.836, 68.500 241.347 C 67.950 241.555, 67.786 242.036, 68.135 242.414 C 68.484 242.793, 71.409 241.749, 74.635 240.094 C 79.518 237.590, 80.724 237.309, 81.838 238.416 C 82.954 239.526, 82.954 240.101, 81.839 241.886 C 80.834 243.495, 79.670 243.960, 77.138 243.762 C 72.373 243.391, 70.516 246.335, 73.894 248.905 C 76.305 250.739, 76.088 253, 73.500 253 C 72.740 253, 71.810 253.498, 71.434 254.107 C 70.320 255.909, 74.811 254.179, 82.270 249.933 C 86.513 247.517, 89.677 246.323, 90.747 246.733 C 91.687 247.094, 89.990 244.425, 86.977 240.803 C 72.731 223.675, 67.015 215.736, 67.005 213.064 C 67.002 212.275, 67.948 210.620, 69.107 209.386 C 70.266 208.152, 71 206.548, 70.738 205.821 C 70.440 204.993, 69.780 205.526, 68.971 207.250 C 67.277 210.857, 66.253 210.722, 65.175 206.750 C 64.082 202.721, 64.576 201.703, 66.995 202.997 C 69.924 204.565, 71.497 204.304, 70 202.500 C 69.315 201.675, 67.478 201, 65.916 201 C 63.411 201, 62.951 200.500, 62.004 196.750 C 60.406 190.415, 59.115 187.811, 57.937 188.539 C 57.334 188.911, 57.156 190.434, 57.521 192.095 C 58.429 196.231, 56.073 195.813, 53.211 191.330 C 51.952 189.358, 51.052 187.668, 51.211 187.575 C 51.370 187.481, 52.798 186.846, 54.384 186.163 C 57.246 184.930, 57.263 184.871, 56.611 178.508 C 56.014 172.684, 56.144 171.993, 58.025 170.987 C 60.424 169.703, 62.207 165.702, 61.362 163.500 C 61.041 162.666, 59.704 161.713, 58.390 161.383 C 56.703 160.960, 56 160.079, 56 158.392 C 56 155.497, 54.379 155.231, 53.506 157.982 M 307.348 156.754 C 307.719 157.355, 310.381 158.631, 313.262 159.589 C 318.872 161.454, 318.730 161.672, 310.750 163.432 C 309.238 163.765, 308 164.413, 308 164.872 C 308 165.822, 321.040 163.175, 322.372 161.955 C 322.852 161.515, 320.377 160.260, 316.872 159.166 C 313.367 158.071, 309.639 156.834, 308.586 156.418 C 307.304 155.910, 306.895 156.021, 307.348 156.754 M 277.079 159.750 C 277.036 161.537, 277.450 163, 278 163 C 278.550 163, 279 162.264, 279 161.365 C 279 160.225, 279.676 160.604, 281.232 162.615 C 282.459 164.202, 283.809 165.650, 284.232 165.833 C 284.654 166.017, 285 166.778, 285 167.524 C 285 168.271, 285.499 169.190, 286.109 169.568 C 287.921 170.687, 285.993 161.716, 284.129 160.352 C 282.901 159.455, 282.334 159.451, 281.772 160.335 C 281.224 161.196, 281.027 161.174, 281.015 160.250 C 281.007 159.563, 280.363 159, 279.583 159 C 278.804 159, 277.940 158.438, 277.662 157.750 C 277.385 157.063, 277.122 157.963, 277.079 159.750 M 185 162.819 C 185 165.126, 184.369 167.279, 183.476 168.020 C 181.819 169.395, 181.762 169.371, 180.305 166.657 C 179.492 165.142, 178.767 166.388, 176.234 173.657 C 174.539 178.520, 172.850 183.714, 172.481 185.197 C 171.609 188.702, 173.516 194.598, 176.945 199 C 178.444 200.925, 179.979 203.738, 180.355 205.250 C 181.272 208.940, 182.682 208.724, 183.553 204.760 C 183.944 202.978, 185.274 200.165, 186.508 198.510 C 191.283 192.105, 192.353 183.396, 189.579 173.500 C 188.808 170.750, 187.873 166.590, 187.502 164.255 C 186.620 158.713, 185 157.783, 185 162.819 M 288.086 162.500 C 288.055 163.600, 288.467 165.175, 289 166 C 289.862 167.333, 289.963 167.333, 289.914 166 C 289.884 165.175, 289.473 163.600, 289 162.500 L 288.141 160.500 288.086 162.500 M 55.745 163.604 C 54.821 165.098, 56.160 170.113, 57.375 169.709 C 57.994 169.503, 58.626 168.688, 58.779 167.898 C 59.129 166.093, 56.503 162.377, 55.745 163.604 M 44.022 165.750 C 44.034 166.713, 44.931 168.625, 46.015 170 C 47.611 172.025, 48.159 172.232, 48.900 171.091 C 50.388 168.798, 48.005 164, 45.378 164 C 44.620 164, 44.010 164.787, 44.022 165.750 M 307 170.203 C 307 170.641, 310.712 170.948, 315.250 170.884 C 324.504 170.754, 323.881 170.286, 313.750 169.758 C 310.038 169.564, 307 169.764, 307 170.203 M 80 172 C 80 172.550, 80.450 173, 81 173 C 81.550 173, 82 172.550, 82 172 C 82 171.450, 81.550 171, 81 171 C 80.450 171, 80 171.450, 80 172 M 306.434 176.893 C 306.810 177.502, 308.591 178, 310.392 178 C 315.578 178, 315.542 179.322, 310.311 180.978 C 302.536 183.438, 303.653 184.356, 317 186.476 C 319.456 186.866, 318.860 186.473, 315 185.157 C 309.041 183.126, 309.189 182.905, 318 180.692 L 323.500 179.310 317.500 178.106 C 305.702 175.738, 305.721 175.740, 306.434 176.893 M 48.769 182.429 C 48.408 184.314, 48.783 185.114, 50.244 185.577 C 52.953 186.437, 54.786 184.471, 53.370 182.222 C 51.642 179.478, 49.313 179.583, 48.769 182.429 M 47.676 188.658 C 46.611 189.722, 46.856 190.468, 49.039 192.811 C 51.342 195.283, 53 195.644, 53 193.674 C 53 191.958, 48.560 187.774, 47.676 188.658 M 306.998 189.021 C 311.567 189.996, 316.051 192.652, 316.770 194.811 C 317.336 196.509, 310.112 196.279, 307 194.500 C 304.087 192.835, 303 192.662, 303 193.863 C 303 195.372, 313.358 198.078, 316.629 197.424 C 324.064 195.937, 316.917 189.106, 307.189 188.401 L 302.500 188.061 306.998 189.021 M 219.800 194.868 C 218.287 195.430, 218.434 196.079, 221.132 200.750 C 222.800 203.637, 224.550 206, 225.020 206 C 226.111 206, 231.369 196.404, 230.873 195.319 C 230.419 194.326, 222.160 193.990, 219.800 194.868 M 128.416 196.743 C 127.681 197.256, 128.277 199.581, 130.266 203.964 L 133.199 210.428 138.558 204.464 C 141.505 201.184, 143.787 198.050, 143.628 197.500 C 143.286 196.312, 129.981 195.650, 128.416 196.743 M 257.506 197.991 C 257.133 198.594, 257.313 199.672, 257.905 200.386 C 258.498 201.100, 258.649 202.042, 258.241 202.479 C 257.834 202.916, 258.175 203.062, 259 202.804 C 260.759 202.252, 261.032 197.844, 259.342 197.281 C 258.705 197.068, 257.878 197.388, 257.506 197.991 M 262 198.358 C 262 199.196, 262.498 200.190, 263.107 200.566 C 263.880 201.044, 263.805 201.536, 262.857 202.201 C 261.759 202.971, 261.786 203.074, 263 202.743 C 264.811 202.249, 265.011 197.837, 263.250 197.250 C 262.563 197.021, 262 197.519, 262 198.358 M 266.605 197.614 C 267.212 197.865, 267.548 199.292, 267.350 200.785 C 267.152 202.278, 267.279 202.825, 267.631 202 C 267.982 201.175, 268.675 199.713, 269.170 198.750 C 269.904 197.324, 269.647 197.015, 267.785 197.079 C 266.528 197.122, 265.997 197.363, 266.605 197.614 M 253.393 199.582 C 253.727 200.452, 254 201.352, 254 201.582 C 254 201.812, 254.408 202, 254.906 202 C 255.405 202, 255.577 201.100, 255.290 200 C 255.002 198.900, 254.321 198, 253.776 198 C 253.232 198, 253.059 198.712, 253.393 199.582 M 95 200.924 C 96.333 201.880, 96.333 202.120, 95 203.076 C 93.667 204.033, 93.667 204.107, 95 203.743 C 95.825 203.518, 96.500 202.733, 96.500 202 C 96.500 201.267, 95.825 200.482, 95 200.257 C 93.667 199.893, 93.667 199.967, 95 200.924 M 102.360 202.573 C 102.437 203.907, 103.063 204.999, 103.750 204.999 C 105.457 205, 105.339 201.344, 103.610 200.681 C 102.641 200.309, 102.263 200.881, 102.360 202.573 M 109.250 200.662 C 107.839 201.232, 107.520 205, 108.883 205 C 109.369 205, 109.982 203.875, 110.245 202.500 C 110.508 201.125, 110.673 200.036, 110.611 200.079 C 110.550 200.122, 109.938 200.385, 109.250 200.662 M 158.266 200.882 C 154.961 201.514, 151 204.249, 151 205.900 C 151 206.406, 152.788 209.082, 154.973 211.846 C 162.693 221.613, 177.893 226.208, 190.428 222.564 C 196.653 220.754, 204.164 214.707, 208.104 208.331 C 210.741 204.065, 210.099 202.399, 205.305 201.068 C 200.473 199.726, 190 199.680, 190 201 C 190 201.550, 192.588 202.045, 195.750 202.100 C 198.912 202.155, 202.611 202.509, 203.969 202.888 C 206.419 203.570, 206.412 203.587, 203.127 204.947 C 200.973 205.840, 199.585 205.968, 199.158 205.313 C 198.354 204.084, 189.630 202.821, 187.524 203.629 C 186.686 203.951, 186 205.123, 186 206.235 C 186 208.331, 186.883 208.354, 196 206.490 C 197.860 206.110, 197.603 206.417, 195 207.689 C 190.238 210.016, 175.295 210.513, 168 208.587 L 162.500 207.135 169.619 207.684 C 177.848 208.318, 180.251 206.839, 174.736 204.534 C 171.012 202.978, 160.019 203.506, 158.851 205.296 C 158.494 205.844, 157.406 205.986, 156.434 205.613 C 153.075 204.324, 156.529 202.974, 164.817 202.335 C 169.318 201.988, 173 201.320, 173 200.852 C 173 199.903, 163.283 199.922, 158.266 200.882 M 98.639 201.694 C 97.444 202.889, 97.994 205, 99.500 205 C 100.325 205, 101 204.352, 101 203.559 C 101 201.888, 99.573 200.761, 98.639 201.694 M 301 206.640 C 306.083 207.572, 306.509 207.919, 304.738 209.691 C 303.247 211.181, 302.899 211.164, 300.310 209.480 C 297.893 207.907, 297.693 207.887, 298.882 209.337 C 301.040 211.969, 309.615 218.004, 311.134 217.960 C 311.885 217.938, 311.262 217.249, 309.750 216.428 C 306.822 214.840, 306.358 213.069, 308.042 209.922 C 308.897 208.324, 309.451 208.171, 311.128 209.068 C 312.252 209.670, 313.386 209.948, 313.648 209.685 C 314.729 208.605, 308.152 206.411, 303.500 206.300 C 300.750 206.235, 299.625 206.388, 301 206.640 M 55.500 210 C 57.393 212.092, 60 212.692, 60 211.035 C 60 209.939, 56.749 208, 54.911 208 C 54.146 208, 54.366 208.747, 55.500 210 M 295.750 214.080 C 292.446 216.005, 293.701 219.281, 299.094 222.808 C 301.876 224.627, 304.679 225.940, 305.323 225.726 C 305.973 225.509, 305.495 224.800, 304.247 224.132 C 300.111 221.919, 301.616 220.684, 307.750 221.258 L 313.500 221.795 308.561 220.082 C 305.845 219.140, 303.410 217.723, 303.149 216.934 C 302.599 215.269, 299.952 213.064, 298.500 213.062 C 297.950 213.061, 296.712 213.519, 295.750 214.080 M 297.176 215.224 C 295.446 216.954, 295.740 218.791, 297.934 219.965 C 300.680 221.434, 301 221.294, 301 218.622 C 301 215.542, 298.807 213.593, 297.176 215.224 M 62.691 220.075 C 62.238 221.807, 61.817 221.972, 60.140 221.075 C 57.678 219.757, 57 219.726, 57 220.929 C 57 222.518, 60.052 225, 62.006 225 C 63.031 225, 65.067 224.545, 66.529 223.989 L 69.189 222.978 66.844 220.506 C 63.976 217.482, 63.385 217.421, 62.691 220.075 M 291.004 225.639 C 291.010 226.989, 294.457 232.214, 297.419 235.361 C 300.347 238.474, 302.420 238.227, 299.592 235.102 C 298.113 233.468, 298.054 232.880, 299.182 231.034 C 300.204 229.362, 301.174 228.990, 303.500 229.380 C 306.023 229.802, 305.827 229.581, 302.268 227.990 C 297.219 225.732, 290.999 224.434, 291.004 225.639 M 134.511 226.748 C 124.133 227.091, 122.502 227.577, 123.936 229.897 C 124.657 231.063, 127.014 231.079, 139.145 229.998 C 156.708 228.434, 169.176 229.248, 175.322 232.360 C 179.602 234.526, 179.644 234.528, 182.917 232.616 C 186.567 230.485, 201.848 229.133, 223.250 229.047 C 230.725 229.017, 235 228.620, 235 227.955 C 235 226.793, 188.800 227.410, 185.422 228.617 C 184.365 228.995, 182.708 229.985, 181.740 230.816 C 180.150 232.182, 179.747 232.111, 177.586 230.081 C 173.319 226.072, 167.834 225.648, 134.511 226.748 M 294.767 229.211 C 296.403 230.848, 297.270 231.130, 298.102 230.298 C 299.739 228.661, 298.288 227, 295.219 227 L 292.556 227 294.767 229.211 M 288.313 232.805 C 292.820 237.509, 291.017 240.244, 286.318 235.829 C 285.048 234.636, 283.759 233.907, 283.456 234.211 C 283.152 234.515, 285.336 236.841, 288.310 239.382 C 293.869 244.131, 296.727 245.565, 293.479 241.976 C 290.782 238.997, 292.910 237.239, 296.424 239.542 C 301.460 242.842, 299.833 240.439, 293.507 235.233 C 286.585 229.538, 284.045 228.350, 288.313 232.805 M 142.250 231.773 C 127.233 231.997, 124 232.298, 124 233.473 C 124 234.680, 126.898 234.808, 142.791 234.300 C 162.866 233.659, 169.521 234.448, 175.757 238.208 C 179.012 240.170, 179.017 240.170, 183.478 238.011 C 188.342 235.656, 200.322 234.133, 215.500 233.939 C 225.691 233.810, 234.996 232.770, 233.500 231.928 C 232.950 231.619, 222.375 231.629, 210 231.950 C 188.587 232.505, 187.304 232.649, 183.434 234.933 L 179.369 237.332 176.277 235.047 C 172.261 232.077, 165.486 231.426, 142.250 231.773 M 147.558 238.250 C 149.988 246.146, 175.741 298.937, 177.183 298.980 C 177.881 299, 182.270 291.360, 189.233 278 C 191.383 273.875, 194.414 268.250, 195.969 265.500 C 197.523 262.750, 201.506 255.213, 204.818 248.750 L 210.841 237 204.171 237.015 C 200.502 237.024, 197.032 237.361, 196.460 237.765 C 195.888 238.169, 191.662 246.025, 187.070 255.222 C 182.477 264.420, 178.390 271.741, 177.987 271.492 C 177.313 271.076, 175.506 266.984, 166.727 246 C 165.001 241.875, 163.176 237.938, 162.672 237.250 C 162.081 236.444, 159.110 236, 154.310 236 C 147.051 236, 146.883 236.056, 147.558 238.250 M 282.590 240.750 C 283.197 245.153, 282.227 246.183, 280 243.500 C 279.315 242.675, 278.248 242.005, 277.628 242.011 C 276.335 242.024, 287.028 251.891, 288.405 251.957 C 288.903 251.981, 288.564 251.176, 287.653 250.169 C 286.741 249.162, 286.297 248.037, 286.664 247.669 C 287.764 246.569, 292.512 246.912, 293.783 248.183 C 294.434 248.834, 295.268 249.065, 295.637 248.696 C 296.393 247.941, 289.912 245, 287.491 245 C 286.614 245, 285.052 243.120, 283.961 240.750 L 282.004 236.500 282.590 240.750 M 81.754 243.465 C 80.793 244.786, 78.857 246.009, 77.450 246.183 C 75.090 246.476, 75.006 246.652, 76.349 248.476 C 77.792 250.436, 77.843 250.433, 82.402 248.156 C 87.091 245.814, 87.935 244.335, 85.800 242.200 C 84.167 240.567, 83.770 240.691, 81.754 243.465 M 276.277 248.171 C 277.939 248.778, 279.845 250.737, 281.027 253.052 C 283.443 257.789, 283.450 258, 281.187 258 C 279.170 258, 274.676 253.578, 273.593 250.528 C 273.084 249.095, 272.680 248.899, 272.116 249.812 C 271.689 250.503, 270.622 250.792, 269.744 250.455 C 268.697 250.054, 267.554 250.750, 266.419 252.483 L 264.690 255.123 270.061 260.561 C 273.015 263.553, 275.881 266, 276.430 266 C 276.979 266, 276.699 265.271, 275.808 264.380 C 274.530 263.102, 274.398 262.155, 275.184 259.901 C 276.163 257.092, 276.233 257.069, 279.162 258.584 C 281.418 259.750, 282.477 259.849, 283.512 258.990 C 286.895 256.182, 280.005 246.763, 274.800 247.079 C 274.085 247.122, 274.750 247.614, 276.277 248.171 M 267.667 252.667 C 266.229 254.104, 267.125 256.953, 269.635 258.927 C 271.084 260.067, 272.659 261, 273.135 261 C 274.125 261, 274.301 255.947, 273.393 253.582 C 272.789 252.009, 268.940 251.394, 267.667 252.667 M 97.797 263.733 C 94.505 264.498, 94.436 270.186, 97.704 271.440 C 99.630 272.179, 102 270.319, 102 268.069 C 102 265.595, 99.754 263.278, 97.797 263.733 M 116.303 269.653 C 115.954 270.562, 116.185 273.150, 116.816 275.403 C 117.447 277.656, 118.708 282.650, 119.619 286.500 C 124.402 306.719, 124.644 307.500, 126.145 307.516 C 127.937 307.536, 136.220 314.375, 143.392 321.758 C 148.504 327.020, 150 327.959, 150 325.903 C 150 324.207, 142.222 315.735, 138.613 313.500 C 136.837 312.400, 133.321 309.798, 130.801 307.719 C 126.897 304.498, 126.117 303.238, 125.537 299.219 C 124.131 289.476, 123.889 288.170, 122.104 280.676 C 121.098 276.454, 120.585 273, 120.963 273 C 122.313 273, 125.930 277.588, 127.452 281.232 C 128.304 283.269, 129 286.975, 129 289.468 C 129 294.198, 130.117 295.228, 132.017 292.250 C 132.930 290.818, 133.035 291.088, 132.595 293.734 C 132.062 296.935, 132.141 297.009, 140.289 300.844 C 144.817 302.976, 149.135 305.458, 149.884 306.360 C 150.632 307.262, 151.865 308, 152.622 308 C 154.308 308, 154.424 305.824, 152.824 304.224 C 150.049 301.449, 150.145 290, 152.943 290 C 153.327 290, 156.032 292.983, 158.954 296.630 C 163.884 302.782, 164.429 304.011, 166.521 313.699 L 168.775 324.140 166.488 326.608 C 164.562 328.685, 163.173 329.109, 157.700 329.288 C 154.124 329.404, 151.406 329.837, 151.659 330.250 C 151.911 330.663, 153.216 331, 154.559 331 C 155.902 331, 157 331.505, 157 332.122 C 157 332.854, 157.588 332.766, 158.687 331.872 C 160.182 330.657, 160.291 330.722, 159.644 332.444 C 158.932 334.340, 158.964 334.342, 160.957 332.539 C 163.174 330.533, 163.783 331.690, 161.752 334.050 C 161.065 334.847, 162.579 333.554, 165.116 331.175 C 169.555 327.013, 169.750 326.936, 170.322 329.123 C 170.649 330.373, 170.430 331.982, 169.836 332.698 C 169.048 333.647, 169.088 334, 169.985 334 C 170.667 334, 170.958 334.668, 170.638 335.500 C 170.322 336.325, 170.554 337, 171.154 337 C 171.831 337, 171.724 337.642, 170.872 338.692 C 169.701 340.136, 169.708 340.259, 170.920 339.528 C 171.983 338.887, 172.180 339.088, 171.706 340.323 C 171.307 341.364, 172.036 342.997, 173.679 344.738 L 176.285 347.500 175.599 343.051 C 174.736 337.454, 170.291 319.034, 168.289 312.761 C 167.458 310.155, 167.038 307.344, 167.356 306.514 C 167.929 305.021, 163.737 297.987, 159.626 293.546 C 158.457 292.283, 156.463 290.092, 155.195 288.677 C 153.928 287.262, 152.282 286.338, 151.537 286.624 C 149.603 287.366, 147.800 292.252, 148.017 296.161 C 148.291 301.094, 148.218 301.189, 145.500 299.408 C 144.031 298.446, 143 296.820, 143 295.467 C 143 291.949, 141.987 290.068, 140.417 290.670 C 139.605 290.982, 139 290.609, 139 289.797 C 139 289.017, 137.680 287.030, 136.067 285.379 C 134.453 283.729, 132.826 281.157, 132.451 279.663 C 131.924 277.560, 131.472 277.193, 130.455 278.038 C 129.454 278.868, 128.844 278.575, 127.906 276.815 C 123.844 269.191, 117.890 265.517, 116.303 269.653 M 256.411 270.498 C 255.569 273.854, 256.524 276, 258.860 276 C 261.214 276, 262.631 271.465, 260.921 269.404 C 259.127 267.243, 257.105 267.734, 256.411 270.498 M 237.249 273.935 C 235.022 275.548, 232.899 277.355, 232.531 277.950 C 232.163 278.546, 231.443 278.774, 230.931 278.457 C 230.419 278.141, 229.990 278.696, 229.978 279.691 C 229.952 281.792, 226.415 286.748, 225.555 285.889 C 225.235 285.569, 225.681 283.614, 226.545 281.545 C 227.410 279.477, 227.926 277.593, 227.693 277.360 C 227.460 277.127, 226.704 278.300, 226.013 279.968 C 225.323 281.636, 224.390 283, 223.942 283 C 223.493 283, 223.373 284.524, 223.675 286.388 C 223.978 288.251, 223.738 290.613, 223.143 291.638 C 222.212 293.240, 222.046 293.012, 221.954 290 L 221.848 286.500 220.500 290 C 219.759 291.925, 219.066 294.625, 218.960 296 C 218.825 297.757, 218.632 297.980, 218.311 296.750 C 217.392 293.236, 216 295.128, 216 299.891 C 216 304.669, 215.906 304.820, 211.980 306.391 C 205.317 309.057, 205.231 308.972, 205.373 299.750 C 205.499 291.538, 203.998 286.135, 201.350 285.274 C 200.718 285.068, 197.679 288.561, 194.597 293.034 C 187.938 302.701, 189.354 303.245, 196.481 293.759 C 199.717 289.453, 201.726 287.545, 202.216 288.315 C 203.484 290.310, 203.084 299.510, 201.538 303.892 C 200.734 306.171, 200.315 308.658, 200.607 309.419 C 201.467 311.660, 207.648 312.322, 211.194 310.553 C 212.906 309.699, 214.718 309, 215.220 309 C 215.723 309, 217.623 307.864, 219.444 306.475 C 221.787 304.688, 223.111 302.570, 223.976 299.225 C 225.833 292.038, 227.994 288.238, 233.858 281.843 C 241.188 273.849, 242.390 274.152, 239.426 283.250 C 232.105 305.724, 231.406 307.212, 224.820 314.346 C 221.344 318.112, 217.257 322.812, 215.737 324.792 C 212.875 328.521, 208.404 331, 204.542 331 C 202.607 331, 196.038 328.998, 189.500 326.415 C 185.318 324.764, 190.330 329.212, 194.819 331.137 C 199.855 333.295, 203.681 333.476, 209.222 331.815 C 212.291 330.896, 214.042 329.384, 217.041 325.065 C 219.166 322.004, 223.612 316.821, 226.921 313.547 C 231.596 308.921, 233.724 305.763, 236.468 299.374 C 238.411 294.852, 240 290.256, 240 289.159 C 240 288.063, 240.900 285.066, 242 282.500 C 244.332 277.059, 244.543 273.695, 242.649 272.123 C 241.611 271.262, 240.358 271.682, 237.249 273.935 M 131 287.441 C 131 288.234, 131.450 289.160, 132 289.500 C 132.550 289.840, 133 289.191, 133 288.059 C 133 286.927, 132.550 286, 132 286 C 131.450 286, 131 286.648, 131 287.441 M 136 292.559 C 136 294.677, 136.405 295.868, 137 295.500 C 137.550 295.160, 138 293.559, 138 291.941 C 138 290.323, 137.550 289, 137 289 C 136.450 289, 136 290.602, 136 292.559 M 140.158 296 C 140.158 297.375, 140.385 297.938, 140.662 297.250 C 140.940 296.563, 140.940 295.438, 140.662 294.750 C 140.385 294.063, 140.158 294.625, 140.158 296 M 187.598 313.122 C 186.985 321.244, 187.219 324.205, 188.373 322.917 C 189.277 321.908, 190.078 304, 189.219 304 C 188.706 304, 187.977 308.105, 187.598 313.122 M 166.981 331.523 C 165.924 332.796, 165.986 332.943, 167.359 332.416 C 168.261 332.069, 169 331.384, 169 330.893 C 169 329.607, 168.421 329.788, 166.981 331.523 M 186.963 332.930 C 187.531 333.992, 189.352 335.827, 191.010 337.007 C 195.025 339.866, 205.086 340.330, 207.650 337.774 C 209.962 335.468, 208.941 334.690, 205.389 336.052 C 201.497 337.544, 195.308 336.445, 190.771 333.456 C 186.276 330.495, 185.610 330.403, 186.963 332.930 M 153.141 339.500 C 153.141 342.800, 153.463 346.317, 153.856 347.315 C 154.531 349.026, 154.682 349.009, 156.480 347.022 C 158.111 345.219, 158.142 345.008, 156.694 345.564 C 154.368 346.457, 154.572 345.488, 157.250 342.925 L 159.500 340.773 157.250 341.454 C 155.378 342.020, 154.988 341.746, 154.930 339.817 C 154.891 338.543, 154.473 336.600, 154 335.500 C 153.394 334.090, 153.141 335.270, 153.141 339.500 M 185 337.715 C 185 339.184, 191.301 344.802, 194.153 345.877 C 197.022 346.958, 209.773 345.627, 211.315 344.085 C 212.895 342.505, 210.551 342.215, 204.769 343.276 C 197.961 344.525, 192.699 343.300, 188.045 339.384 C 186.370 337.975, 185 337.224, 185 337.715" stroke="none" fill="#1210e8" fill-rule="evenodd"/><path d="M 147.588 2.553 C 80.888 15.483, 26.920 63.694, 7.548 127.653 C 1.953 146.127, 0.907 153.252, 0.309 177.003 C -0.201 197.261, -0.079 199.341, 2.419 212.935 C 11.079 260.072, 37.315 301.521, 76.053 329.266 C 88.789 338.389, 112.417 349.970, 127.500 354.485 C 146.049 360.036, 154.178 361.215, 177.547 361.742 C 197.163 362.184, 199.573 362.037, 212.980 359.573 C 273.476 348.458, 323.263 308.998, 347.855 252.673 C 353.151 240.542, 358.768 220.879, 360.219 209.385 C 360.863 204.291, 361.752 200.346, 362.195 200.620 C 363.323 201.318, 363.207 162.362, 362.075 160.236 C 361.566 159.281, 360.188 153.100, 359.013 146.500 C 351.158 102.393, 323.859 59.888, 285.947 32.734 C 273.198 23.602, 249.618 12.073, 234.347 7.503 C 215.077 1.738, 208.878 0.877, 183.500 0.443 C 162.139 0.077, 159.580 0.228, 147.588 2.553 M 174.285 29.208 C 169.807 35.969, 163.744 45.550, 160.809 50.500 C 157.875 55.450, 153.547 62.318, 151.191 65.763 L 146.908 72.026 140.704 71.463 C 133.514 70.811, 71.549 73.043, 69.983 74.010 C 69.332 74.413, 71.491 79.657, 75.658 87.791 L 82.383 100.922 77.789 110.711 C 70.369 126.523, 67.206 138.309, 65.856 155.177 C 64.898 167.161, 65.546 173.775, 69.387 191.163 C 72.017 203.067, 82.017 221.997, 91.624 233.256 C 94.085 236.140, 100.689 242.463, 106.299 247.306 C 114.806 254.650, 118.825 257.253, 130.500 262.980 C 138.200 266.757, 147.975 271.061, 152.223 272.544 C 156.471 274.027, 160.602 275.749, 161.403 276.370 C 162.204 276.992, 165.423 282.652, 168.557 288.949 C 171.691 295.246, 174.937 301.080, 175.771 301.914 C 177.679 303.821, 177.946 303.476, 186.551 288 C 190.067 281.675, 193.520 276.202, 194.222 275.838 C 194.925 275.473, 198.200 274.644, 201.500 273.994 C 221.721 270.015, 241.037 261.702, 254.120 251.350 C 265.320 242.488, 266.936 240.871, 273.910 231.551 C 283.134 219.225, 286.260 214.004, 289.985 204.698 C 295.782 190.216, 297.069 183.146, 297.120 165.500 C 297.188 141.847, 294.706 130.392, 285.378 111.316 L 280.887 102.132 285.800 92.316 C 288.501 86.917, 291.675 80.925, 292.852 79 C 295.839 74.116, 295.608 72.372, 291.875 71.625 C 290.156 71.281, 272.494 70.994, 252.625 70.988 L 216.500 70.975 214.255 67.510 C 213.021 65.604, 209.469 59.197, 206.362 53.272 C 203.255 47.348, 198.298 38.450, 195.346 33.500 C 189.581 23.834, 188.860 22.578, 187.306 19.500 C 184.934 14.804, 182.742 16.439, 174.285 29.208 M 172.354 36.250 C 166.812 45.188, 161.051 54.671, 159.552 57.325 C 158.054 59.979, 152.452 68.754, 147.104 76.825 C 141.755 84.896, 134.648 96.225, 131.310 102 C 127.971 107.775, 123.307 115.798, 120.945 119.830 L 116.649 127.159 119.929 133.810 C 123.153 140.348, 123.236 140.424, 124.854 138.321 C 127.701 134.621, 144.785 106.999, 151.648 95 C 164.324 72.836, 166.230 69.671, 173.718 58.332 C 178.771 50.679, 181.786 47.005, 182.843 47.208 C 184.194 47.468, 199.686 69.390, 204.957 78.500 C 213.287 92.896, 218.986 102.495, 226.132 114.163 C 230.735 121.678, 236.075 130.559, 238 133.898 C 239.925 137.238, 241.725 139.975, 242 139.980 C 242.275 139.985, 243.937 136.819, 245.693 132.943 L 248.887 125.896 245.845 120.698 C 244.172 117.839, 241.120 113.250, 239.064 110.500 C 224.481 91.002, 210.789 69.509, 202.659 53.355 C 199.655 47.385, 195.578 39.800, 193.599 36.500 C 187.071 25.610, 183.507 20.097, 182.965 20.048 C 182.671 20.022, 177.896 27.313, 172.354 36.250 M 169.487 73.780 C 167.845 74.022, 163.664 80.194, 161.234 85.963 C 161.088 86.309, 170.876 86.629, 182.984 86.674 C 195.867 86.721, 205 86.371, 205 85.829 C 205 85.320, 203.431 82.451, 201.512 79.452 L 198.025 74 188.262 73.812 C 182.893 73.709, 176.925 73.593, 175 73.554 C 173.075 73.515, 170.594 73.617, 169.487 73.780 M 109.791 74.543 C 109.586 74.747, 102.687 74.985, 94.459 75.071 C 86.232 75.157, 78.042 75.452, 76.260 75.726 L 73.020 76.224 75.566 80.362 C 76.966 82.638, 80.612 89.675, 83.669 96 C 86.725 102.325, 90.863 110.425, 92.863 114 C 94.863 117.575, 99.054 126.575, 102.176 134 C 105.298 141.425, 110.507 153.575, 113.752 161 L 119.653 174.500 127.326 174.792 C 131.758 174.961, 135 174.679, 135 174.125 C 135 173.598, 134.596 173.017, 134.102 172.833 C 133.317 172.542, 124 153.684, 124 152.387 C 124 151.326, 111.119 125.103, 107.285 118.360 C 105.052 114.432, 102.311 108.807, 101.192 105.860 C 100.074 102.912, 98.478 99.150, 97.647 97.500 C 96.816 95.850, 95.848 93.331, 95.497 91.901 C 94.867 89.336, 94.949 89.294, 101.680 88.658 C 105.431 88.304, 114.830 88.011, 122.566 88.007 L 136.633 88 140.727 81.578 C 142.979 78.045, 144.545 74.879, 144.208 74.541 C 143.563 73.897, 110.435 73.898, 109.791 74.543 M 219 74.401 C 219 74.686, 220.790 77.750, 222.979 81.210 L 226.958 87.500 247.890 87.500 C 259.403 87.500, 269.120 87.795, 269.484 88.156 C 269.848 88.517, 268.313 92.653, 266.073 97.347 C 263.833 102.041, 262 106.201, 262 106.593 C 262 107.808, 245.392 142.689, 236.928 159.250 L 228.878 175 234.939 175 L 241.001 175 250.591 155.250 C 263.096 129.497, 272.728 110.198, 282.819 90.670 C 287.319 81.963, 291 74.753, 291 74.648 C 291 74.542, 274.800 74.327, 255 74.169 C 235.200 74.011, 219 74.115, 219 74.401 M 174.890 106.250 C 171.928 110.237, 166.481 116.687, 162.785 120.582 C 157.661 125.982, 156.342 127.942, 157.232 128.832 C 159.020 130.620, 160.206 130.223, 159.521 128.067 C 158.522 124.920, 163.164 126.023, 175.391 131.837 C 175.883 132.071, 175.981 130.969, 175.611 129.380 C 175.113 127.243, 175.205 126.887, 175.970 128 C 176.617 128.942, 177.279 129.128, 177.750 128.500 C 178.162 127.950, 179.175 127.372, 180 127.216 C 180.825 127.060, 182.892 125.323, 184.593 123.355 C 187.355 120.161, 187.635 119.258, 187.215 114.890 C 186.904 111.651, 187.126 110, 187.873 110 C 188.493 110, 189 110.938, 189 112.083 C 189 113.319, 189.509 113.987, 190.250 113.726 C 190.938 113.483, 191.438 112.546, 191.361 111.642 C 191.285 110.739, 191.634 110, 192.137 110 C 192.640 110, 192.384 108.710, 191.569 107.134 C 190.588 105.236, 189.028 104.056, 186.952 103.640 C 184.978 103.246, 183.622 102.270, 183.291 101.007 C 182.388 97.553, 180.452 98.762, 174.890 106.250 M 290.500 100 C 290.840 100.550, 291.512 101, 291.994 101 C 292.476 101, 294.090 101.464, 295.580 102.031 L 298.291 103.061 295.975 105.527 C 294.701 106.883, 293.922 108.255, 294.244 108.577 C 295.074 109.407, 299.255 107.027, 300.807 104.841 C 301.525 103.829, 302.734 103, 303.492 103 C 305.469 103, 310.367 101.034, 309.801 100.467 C 309.538 100.205, 307.016 100.428, 304.196 100.963 C 300.249 101.711, 298.110 101.597, 294.908 100.468 C 289.977 98.728, 289.695 98.698, 290.500 100 M 54.667 104.667 C 54.300 105.033, 54 106.158, 54 107.167 C 54 108.389, 53.251 109.013, 51.750 109.040 C 49.863 109.073, 50.065 109.366, 53 110.851 C 60.404 114.597, 61.215 115.185, 60.279 116.121 C 59.699 116.701, 57.666 116.295, 54.922 115.050 C 48.125 111.967, 46.777 112.723, 53.179 116.028 C 59.565 119.325, 60.884 120.723, 58.480 121.646 C 57.574 121.994, 56.490 123.205, 56.070 124.339 C 55.326 126.352, 55.247 126.338, 52.664 123.755 C 51.074 122.164, 50.258 120.491, 50.617 119.556 C 51.284 117.816, 48.099 117.327, 46.450 118.915 C 45.928 119.419, 44.375 120.032, 43 120.279 C 41.179 120.606, 41.518 120.765, 44.250 120.864 C 48.055 121.002, 49.235 122.312, 46.500 123.362 C 45.675 123.678, 45 124.851, 45 125.969 C 45 127.513, 44.341 128.005, 42.250 128.021 C 40.355 128.036, 41.647 128.800, 46.409 130.480 C 55.044 133.527, 55.633 134.104, 53.478 137.393 C 51.848 139.881, 50.025 140.848, 49.978 139.250 C 49.966 138.838, 49.115 137.406, 48.087 136.069 C 46.302 133.747, 46.140 133.717, 44.455 135.402 C 43.152 136.705, 41.819 137.001, 39.346 136.537 C 35.539 135.823, 35.037 136.414, 38.071 138.038 C 39.520 138.814, 41.019 138.840, 43.065 138.127 C 45.550 137.261, 46.144 137.400, 47.029 139.054 C 47.602 140.124, 48.969 141, 50.067 141 C 52.037 141, 53.809 143.525, 52.651 144.683 C 52.323 145.011, 49.425 144.541, 46.212 143.639 C 40.295 141.979, 36.167 141.501, 37.269 142.603 C 37.601 142.934, 40.939 144.001, 44.686 144.973 C 50.253 146.417, 51.560 147.140, 51.827 148.928 C 52.444 153.052, 54.481 150.339, 55.587 143.920 C 56.196 140.389, 57.648 134.745, 58.815 131.377 C 59.981 128.009, 61.219 123.480, 61.566 121.312 C 62.127 117.804, 62.644 117.213, 66.275 115.935 C 68.518 115.146, 70.552 113.893, 70.793 113.151 C 71.115 112.164, 70.543 112.253, 68.666 113.483 C 67.254 114.409, 65.391 115.016, 64.526 114.833 C 63.263 114.565, 63.635 113.468, 66.420 109.250 C 69.983 103.851, 70.092 102.702, 66.752 105.724 C 64.948 107.357, 64.687 107.357, 61.842 105.724 C 58.731 103.939, 55.823 103.510, 54.667 104.667 M 55.620 105.806 C 54.919 106.940, 57.175 111.101, 59.166 112.344 C 60.368 113.094, 61.274 113.017, 62.416 112.070 C 64.866 110.036, 64.318 108.522, 60.466 106.685 C 56.401 104.747, 56.287 104.726, 55.620 105.806 M 175 109.500 C 175 110.325, 175.450 111, 176 111 C 176.550 111, 177 110.325, 177 109.500 C 177 108.675, 176.550 108, 176 108 C 175.450 108, 175 108.675, 175 109.500 M 306.665 112.507 C 304.006 113.238, 301.568 114.099, 301.247 114.420 C 300.925 114.741, 299.778 114.216, 298.698 113.252 C 296.794 111.553, 296.757 111.576, 297.498 114 C 297.919 115.375, 299.103 117.694, 300.131 119.154 C 301.159 120.614, 302 122.302, 302 122.904 C 302 124.280, 304.267 124.333, 305.613 122.987 C 306.169 122.431, 309.297 121.552, 312.563 121.035 L 318.500 120.096 310.769 120.397 C 303.989 120.660, 302.967 120.471, 302.455 118.858 C 301.587 116.124, 302.493 115.315, 308.002 113.903 C 310.751 113.198, 313 112.257, 313 111.811 C 313 110.816, 312.698 110.850, 306.665 112.507 M 172.056 112.965 C 170.849 113.712, 170.838 114.100, 171.989 115.487 C 173.249 117.005, 173.418 117.004, 174.279 115.467 C 175.437 113.397, 173.991 111.770, 172.056 112.965 M 197.389 118.485 C 198.600 122.354, 199.756 123.138, 202.997 122.290 C 205.071 121.748, 204.987 121.540, 201.412 118.359 C 199.336 116.511, 197.336 115, 196.968 115 C 196.600 115, 196.789 116.568, 197.389 118.485 M 169.225 118.555 C 169.006 121.201, 170.443 121.894, 171.334 119.573 C 171.635 118.788, 171.329 117.688, 170.654 117.128 C 169.747 116.375, 169.374 116.747, 169.225 118.555 M 192.060 118.437 C 190.739 119.842, 189.961 121.294, 190.329 121.663 C 190.698 122.032, 191 121.822, 191 121.198 C 191 120.574, 191.671 120.320, 192.492 120.635 C 193.336 120.959, 194.245 120.526, 194.586 119.637 C 195.767 116.560, 194.422 115.921, 192.060 118.437 M 168.242 123.697 C 169.726 125.180, 171.291 126.042, 171.720 125.611 C 172.574 124.753, 168.457 121, 166.662 121 C 166.048 121, 166.759 122.214, 168.242 123.697 M 47 125.943 C 47 127.012, 48.013 128.599, 49.250 129.471 C 51.306 130.918, 51.529 130.916, 51.838 129.453 C 52.181 127.823, 49.382 124, 47.845 124 C 47.380 124, 47 124.874, 47 125.943 M 194.500 126.523 L 191.500 129.036 195.250 127.333 C 197.313 126.396, 199 125.263, 199 124.815 C 199 123.398, 197.594 123.931, 194.500 126.523 M 312.229 124.669 C 311.530 124.951, 310.273 126.505, 309.436 128.123 C 307.821 131.246, 305.487 131.069, 306.319 127.887 C 306.630 126.698, 306.292 126, 305.406 126 C 303.296 126, 303.714 129.656, 306.075 131.856 C 307.403 133.092, 307.763 134.028, 307.075 134.453 C 305.586 135.374, 305.721 141.708, 307.250 142.663 C 308.855 143.665, 321.993 143.743, 321.997 142.750 C 321.999 142.338, 320.875 142, 319.500 142 C 316.013 142, 316.336 139.668, 320.250 136.584 C 323.011 134.408, 323.195 134.021, 321.473 134.011 C 320.357 134.005, 318.441 134.703, 317.214 135.563 C 315.191 136.980, 314.837 136.980, 313.420 135.563 C 312.560 134.703, 311.214 134, 310.429 134 C 309.643 134, 309 133.550, 309 133 C 309 132.450, 309.395 132, 309.879 132 C 310.362 132, 311.325 130.629, 312.019 128.954 C 313.517 125.338, 316.644 125.272, 316.249 128.865 C 315.908 131.960, 319.375 131.355, 319.819 128.241 C 320.232 125.349, 315.765 123.247, 312.229 124.669 M 185.583 125.866 C 185.152 126.563, 185.070 127.403, 185.400 127.733 C 186.295 128.628, 187.271 127.312, 186.787 125.862 C 186.449 124.846, 186.213 124.846, 185.583 125.866 M 200.602 126.524 C 191.750 131.140, 186.131 135.177, 186.655 136.543 C 187.436 138.579, 190.092 138.364, 190.653 136.221 C 190.908 135.242, 194.016 132.669, 197.559 130.502 C 201.102 128.336, 204 126.211, 204 125.782 C 204 124.758, 203.978 124.763, 200.602 126.524 M 210 125.969 C 210 126.501, 209.333 126.681, 208.518 126.369 C 207.697 126.054, 205.133 127.228, 202.768 129.002 C 198.313 132.344, 199.398 132.440, 206.904 129.367 C 213.133 126.817, 211.306 128.821, 204.200 132.333 C 199.115 134.846, 196.894 135.494, 196.098 134.698 C 195.301 133.901, 195 133.910, 195 134.733 C 195 137.612, 199.192 136.949, 206.702 132.881 C 210.991 130.559, 214.692 128.506, 214.927 128.319 C 215.435 127.915, 211.830 125.078, 210.750 125.032 C 210.338 125.014, 210 125.436, 210 125.969 M 53.557 129.250 C 54.445 132.140, 54.648 132.335, 55.933 131.541 C 57.889 130.333, 57.154 127, 54.933 127 C 53.250 127, 52.994 127.419, 53.557 129.250 M 158.455 133.174 C 153.328 139.880, 151.486 144.064, 153.196 145.121 C 153.881 145.545, 154.147 146.186, 153.787 146.547 C 153.426 146.907, 151.381 146.218, 149.241 145.015 C 145.807 143.085, 144.860 142.960, 141.175 143.953 C 138.879 144.571, 137 145.401, 137 145.798 C 137 146.668, 140.999 149.318, 142.759 149.614 C 144.830 149.962, 153.305 156.406, 153.802 158.011 C 154.060 158.845, 152.995 158.340, 151.382 156.864 C 148.755 154.462, 142.770 150.907, 141.500 150.996 C 140.733 151.049, 135.604 147.692, 134.869 146.656 C 134.075 145.537, 127 147.785, 127 149.156 C 127 150.572, 135.021 167.867, 137.434 171.653 L 139.443 174.807 151.472 175.653 C 167.262 176.765, 167.412 177.309, 155.475 190.179 C 150.720 195.306, 143.633 203.325, 139.726 208 C 135.820 212.675, 130.796 218.435, 128.562 220.800 L 124.500 225.099 145 224.626 C 166.325 224.133, 174.092 224.868, 177.190 227.672 C 178.629 228.974, 179.498 229.098, 181.260 228.254 C 185.825 226.068, 187.966 225.827, 209.794 225.045 C 222.055 224.605, 232.290 224.043, 232.537 223.796 C 232.785 223.549, 226.450 213.497, 218.461 201.459 C 210.472 189.421, 204.068 178.880, 204.230 178.036 C 204.465 176.805, 206.445 176.443, 214.195 176.215 L 223.867 175.929 227.311 169.715 C 241.450 144.199, 242.203 142, 236.799 142 C 235.808 142, 232.479 139.412, 229.401 136.250 C 226.323 133.088, 224.081 131.032, 224.419 131.682 C 224.757 132.331, 224.013 133.591, 222.767 134.481 C 220.563 136.054, 220.553 136.139, 222.397 137.517 C 224.502 139.091, 226 138.643, 226 136.441 C 226 135.648, 226.422 135, 226.937 135 C 227.457 135, 227.611 136.624, 227.282 138.647 C 226.698 142.248, 226.728 142.286, 229.595 141.632 C 232.050 141.072, 232.254 141.165, 230.916 142.235 C 229.833 143.100, 229.428 144.765, 229.635 147.500 L 229.938 151.500 228.989 147.770 C 228.137 144.424, 224.958 140, 223.404 140 C 223.077 140, 221.451 140.967, 219.792 142.148 C 218.133 143.330, 215.086 144.392, 213.021 144.508 C 210.957 144.625, 207.788 145.458, 205.980 146.360 C 201.429 148.630, 200.976 148.358, 204.500 145.469 C 206.692 143.672, 207.044 143.009, 205.809 143.005 C 204.879 143.002, 203.840 143.450, 203.500 144 C 203.160 144.550, 202.470 145, 201.966 145 C 200.552 145, 202.138 138.663, 203.919 137.202 C 204.873 136.418, 204.230 136.517, 202.300 137.452 C 200.539 138.303, 198.480 139, 197.724 139 C 196.968 139, 195.258 140.197, 193.924 141.660 C 192.241 143.507, 192.005 144.139, 193.153 143.729 C 194.062 143.404, 195.637 143.767, 196.653 144.537 C 197.678 145.314, 197.958 145.951, 197.281 145.968 C 196.611 145.986, 196.322 146.675, 196.638 147.500 C 196.990 148.417, 196.638 149, 195.732 149 C 194.917 149, 192.731 149.280, 190.875 149.622 C 187.654 150.215, 187.591 150.171, 189.500 148.654 C 191.749 146.866, 191.821 146.920, 186.869 146.678 C 183.431 146.509, 183.286 146.627, 184.147 148.889 C 185.375 152.115, 184.464 152.724, 181.873 150.411 C 179.754 148.518, 179.741 148.520, 180.411 150.675 C 181.025 152.651, 180.832 152.782, 178.308 152.107 C 176.571 151.642, 174.585 151.856, 173.014 152.676 C 170.154 154.168, 164.465 154.301, 161.500 152.944 C 159.869 152.198, 160.146 152.053, 163 152.160 C 168.370 152.361, 170 152.091, 170 151 C 170 150.450, 169.438 149.984, 168.750 149.964 C 167.194 149.919, 161.092 145.012, 162.583 145.005 C 163.179 145.002, 163.980 145.313, 164.362 145.696 C 164.745 146.078, 165.607 146.494, 166.279 146.620 C 166.951 146.746, 168.990 147.170, 170.810 147.561 L 174.120 148.274 171.060 145.214 C 167.863 142.017, 166.613 138.604, 169.524 141.020 C 170.362 141.716, 171.338 141.995, 171.693 141.640 C 172.048 141.286, 173.182 141.760, 174.213 142.693 C 175.245 143.627, 177.008 144.531, 178.130 144.702 C 180.318 145.036, 180.183 144.710, 174.263 135.352 C 173.515 134.171, 171.400 132.922, 169.562 132.578 C 167.399 132.172, 166.038 131.254, 165.704 129.975 C 164.854 126.725, 162.638 127.703, 158.455 133.174 M 181.364 129.494 C 181.048 130.316, 180.388 130.740, 179.895 130.435 C 179.403 130.131, 179 130.557, 179 131.382 C 179 133.519, 180.965 134.452, 182.337 132.966 C 183.228 132.001, 183.208 131.871, 182.250 132.412 C 180.476 133.414, 180.699 131.444, 182.571 129.571 C 183.436 128.707, 183.647 128, 183.040 128 C 182.433 128, 181.679 128.672, 181.364 129.494 M 216.210 130.319 C 213.614 131.478, 213.175 133.554, 215.750 132.494 C 216.713 132.097, 218.287 131.547, 219.250 131.270 C 220.213 130.993, 221 130.444, 221 130.050 C 221 129.038, 218.806 129.161, 216.210 130.319 M 153.286 132.619 C 153.626 132.960, 153.251 133.892, 152.452 134.690 C 151.654 135.489, 151 136.823, 151 137.655 C 151 139.812, 153.269 138.776, 153.608 136.464 C 153.764 135.404, 154.368 134.377, 154.952 134.183 C 156.252 133.749, 155.308 132, 153.774 132 C 153.165 132, 152.945 132.279, 153.286 132.619 M 162.567 134.926 C 161.609 135.985, 160.977 137.589, 161.162 138.490 C 161.456 139.918, 161.791 139.858, 163.750 138.026 C 165.972 135.949, 166.796 133, 165.155 133 C 164.690 133, 163.526 133.867, 162.567 134.926 M 167.667 134.667 C 166.639 135.694, 166.878 139.194, 167.931 138.543 C 168.443 138.226, 169.196 138.507, 169.603 139.167 C 170.119 140.002, 170.559 139.779, 171.049 138.434 C 172.062 135.650, 169.517 132.816, 167.667 134.667 M 308.384 136.442 C 307.298 139.273, 308.455 141.500, 311.014 141.500 C 312.948 141.500, 313.423 141.056, 313.155 139.500 C 312.474 135.553, 309.465 133.624, 308.384 136.442 M 182 137.310 C 182 138.111, 182.926 139.009, 184.058 139.305 C 185.593 139.706, 186.035 139.421, 185.797 138.183 C 185.394 136.091, 182 135.311, 182 137.310 M 218 138 C 218 138.550, 218.450 139, 219 139 C 219.550 139, 220 138.550, 220 138 C 220 137.450, 219.550 137, 219 137 C 218.450 137, 218 137.450, 218 138 M 148.176 140.224 C 146.502 141.898, 146.712 142.553, 148.980 142.724 C 151.491 142.913, 152.375 141.556, 150.665 140.137 C 149.713 139.347, 149.030 139.370, 148.176 140.224 M 183.696 143.650 C 184.341 145.331, 185.007 145.310, 187.354 143.532 C 189.073 142.229, 188.989 142.134, 186.193 142.214 C 184.093 142.273, 183.335 142.709, 183.696 143.650 M 257.399 148.750 C 252.639 159.377, 252.520 158.004, 259.049 167.831 C 262.322 172.758, 265 177.056, 265 177.383 C 265 177.927, 229.690 178.544, 213.750 178.278 C 210.037 178.216, 207 178.359, 207 178.595 C 207 178.831, 209.037 182.087, 211.526 185.830 L 216.052 192.636 222.776 191.746 C 226.474 191.256, 243.130 191.129, 259.788 191.465 L 290.076 192.074 287.600 188.287 C 283.784 182.450, 274.992 167.731, 267.565 154.750 C 263.868 148.287, 260.648 143, 260.409 143 C 260.170 143, 258.816 145.588, 257.399 148.750 M 80.064 150.526 C 77.449 153.291, 74.791 156.522, 74.157 157.707 C 73.523 158.891, 71.991 160.004, 70.752 160.180 C 69.139 160.409, 68.410 161.280, 68.184 163.250 C 67.774 166.814, 68.936 166.724, 72.563 162.914 C 76.571 158.703, 78.654 157.656, 79.361 159.499 C 79.736 160.476, 78.435 161.833, 75.438 163.589 C 71.076 166.145, 69 168.572, 69 171.114 C 69 171.799, 70.610 170.479, 72.578 168.180 C 74.546 165.881, 76.866 164, 77.733 164 C 79.091 164, 79.059 164.277, 77.500 166 C 75.733 167.952, 75.753 168, 78.345 168 C 81.553 168, 81.618 168.382, 78.882 171.118 C 77.326 172.674, 76.563 172.911, 76.007 172.011 C 75.467 171.138, 75.054 171.104, 74.566 171.893 C 74.190 172.502, 72.784 173, 71.441 173 C 69.385 173, 69 173.483, 69 176.057 C 69 179.671, 70.939 188.131, 72.051 189.365 C 72.479 189.841, 73.596 188.716, 74.532 186.865 C 76.673 182.632, 86.266 166.671, 87.071 166 C 87.402 165.725, 90.085 162.165, 93.034 158.088 L 98.396 150.676 95.058 148.102 C 89.601 143.894, 85.748 144.517, 80.064 150.526 M 209.750 146.080 C 208.787 146.641, 208 147.477, 208 147.939 C 208 149.084, 211.324 148.740, 212.235 147.500 C 214.014 145.078, 212.730 144.345, 209.750 146.080 M 215 146.977 C 215 148.877, 209.739 151.391, 206.254 151.156 C 202.291 150.890, 193 153.665, 193 155.116 C 193 155.694, 193.762 155.663, 194.934 155.035 C 197.835 153.483, 200.318 153.728, 199.638 155.500 C 198.770 157.762, 200.569 157.304, 203.605 154.490 C 206.912 151.426, 208.192 152.103, 205.171 155.318 C 202.919 157.716, 202.435 159, 203.784 159 C 204.216 159, 205.380 157.627, 206.371 155.949 C 207.813 153.508, 208.453 153.131, 209.574 154.061 C 210.344 154.701, 211.754 154.925, 212.707 154.559 C 215.293 153.566, 213.612 154.942, 209.922 156.838 C 206.525 158.582, 205.876 160.601, 208.791 160.357 C 209.731 160.278, 212.708 159.869, 215.406 159.449 C 219.026 158.886, 220.125 158.989, 219.597 159.843 C 219.204 160.479, 217.559 161, 215.941 161 C 214.323 161, 213 161.450, 213 162 C 213 163.259, 224.677 163.331, 225.453 162.076 C 225.767 161.569, 224.689 160.202, 223.057 159.041 C 221.225 157.736, 220.307 156.363, 220.657 155.451 C 221.423 153.455, 219.229 151, 216.678 151 C 215.062 151, 214.867 150.733, 215.800 149.800 C 217.256 148.344, 217.380 146, 216 146 C 215.450 146, 215 146.440, 215 146.977 M 231.825 148.674 C 232.251 150.767, 232.503 151.019, 232.794 149.644 C 233.011 148.623, 232.751 147.351, 232.218 146.818 C 231.592 146.192, 231.452 146.849, 231.825 148.674 M 218.257 147.590 C 218.581 147.914, 221.228 149.714, 224.139 151.590 C 229.507 155.048, 232 155.812, 232 154 C 232 153.450, 231.116 153, 230.035 153 C 228.955 153, 227.568 152.061, 226.954 150.914 C 226.340 149.767, 225.590 149.076, 225.288 149.379 C 224.985 149.682, 223.796 149.270, 222.646 148.465 C 220.658 147.072, 217.012 146.346, 218.257 147.590 M 308 149.500 C 308.523 150.875, 308.624 152.014, 308.225 152.030 C 307.826 152.047, 308.290 152.521, 309.254 153.083 C 311.038 154.121, 322.749 154.584, 323.681 153.653 C 324.406 152.927, 322.993 147, 322.094 147 C 321.683 147, 321.545 148.350, 321.787 150 C 322.148 152.460, 321.875 153, 320.274 153 C 319.138 153, 317.756 151.850, 316.969 150.250 C 315.694 147.656, 315.596 147.623, 315.250 149.665 C 315.048 150.856, 314.247 152.075, 313.470 152.373 C 311.827 153.004, 309 150.509, 309 148.429 C 309 147.643, 308.561 147, 308.025 147 C 307.398 147, 307.389 147.893, 308 149.500 M 271.204 149.048 L 268.908 149.969 274.111 159.735 C 276.973 165.106, 280.287 170.850, 281.477 172.500 C 282.667 174.150, 285.177 178.106, 287.057 181.292 L 290.474 187.084 291.666 180.792 C 292.322 177.331, 293.165 170.675, 293.540 166 C 294.200 157.765, 294.141 157.426, 291.670 155.131 C 289.421 153.044, 288.744 152.894, 285.959 153.864 C 283.007 154.893, 282.596 154.736, 279.716 151.483 C 276.527 147.882, 275.117 147.478, 271.204 149.048 M 83.635 154.585 C 81.509 157.070, 80.012 159.345, 80.307 159.641 C 80.832 160.165, 88.172 152.622, 88.833 150.879 C 89.669 148.675, 87.158 150.465, 83.635 154.585 M 101.810 151.726 C 98.947 155.015, 82.412 179.450, 79.084 185.309 C 77.270 188.504, 76.041 191.375, 76.354 191.688 C 76.667 192.001, 93.064 192.478, 112.791 192.748 L 148.659 193.240 154.579 186.553 C 157.836 182.876, 160.650 179.447, 160.833 178.933 C 161.035 178.369, 149.276 178, 131.083 178 C 114.537 178, 101 177.753, 101 177.450 C 101 176.460, 103.938 171.193, 107.121 166.476 L 110.244 161.848 107.856 156.252 C 105.183 149.988, 104.056 149.145, 101.810 151.726 M 151.250 151.250 C 151.478 151.938, 152.514 152.664, 153.551 152.865 C 155.182 153.181, 155.256 153.013, 154.096 151.615 C 152.510 149.704, 150.656 149.466, 151.250 151.250 M 84.052 159.085 C 81.984 161.659, 81.120 163.520, 81.718 164.118 C 82.799 165.199, 86 164.258, 86 162.858 C 86 162.347, 84.987 162.451, 83.750 163.087 C 82.180 163.895, 82.633 163.063, 85.250 160.330 C 87.313 158.177, 89 156.097, 89 155.708 C 89 153.999, 87.093 155.301, 84.052 159.085 M 53.506 157.982 C 52.932 159.788, 52.195 159.923, 45.188 159.496 C 40.029 159.182, 38.322 159.320, 40 159.914 C 41.375 160.402, 44.075 160.852, 46 160.916 C 47.925 160.979, 50.159 161.447, 50.964 161.957 C 52.649 163.022, 53.585 172, 52.012 172 C 51.455 172, 51 171.303, 51 170.450 C 51 169.598, 50.313 167.573, 49.474 165.950 C 48.326 163.730, 47.243 163, 45.097 163 C 40.919 163, 39.332 165.332, 41.382 168.460 C 43.370 171.494, 43.395 172, 41.559 172 C 40.766 172, 39.797 172.520, 39.405 173.155 C 38.972 173.854, 39.129 174.038, 39.802 173.622 C 40.413 173.244, 43.858 173.237, 47.457 173.606 C 53.478 174.223, 54 174.465, 54 176.638 C 54 178.585, 53.484 179, 51.059 179 C 49.441 179, 47.792 179.527, 47.394 180.171 C 46.915 180.947, 46.400 180.609, 45.868 179.171 C 44.777 176.224, 43.396 176.442, 42.206 179.750 C 41.662 181.262, 40.251 183.512, 39.069 184.750 C 36.647 187.288, 38.386 187.865, 41.088 185.420 C 42.461 184.177, 43.278 184.078, 44.917 184.955 C 47.370 186.269, 47.591 187.559, 45.500 188.362 C 43.194 189.247, 43.714 191.625, 46.686 193.790 C 49.350 195.730, 49.354 195.753, 47.186 196.441 C 45.984 196.823, 45 197.554, 45 198.067 C 45 199.316, 46.723 199.257, 47.512 197.981 C 47.858 197.421, 49.797 197.045, 51.821 197.145 C 53.844 197.246, 56.285 196.983, 57.244 196.560 C 58.544 195.986, 59.213 196.389, 59.876 198.145 C 60.365 199.440, 60.606 200.774, 60.411 201.109 C 60.216 201.443, 57.292 201.968, 53.913 202.274 C 47.811 202.827, 44.819 204.152, 46.844 205.403 C 47.404 205.749, 48.144 205.575, 48.490 205.016 C 49.453 203.458, 59.263 203.795, 61.653 205.469 C 63.757 206.943, 65.499 211, 64.028 211 C 63.597 211, 62.627 210.085, 61.872 208.967 C 60.106 206.350, 54.151 205.444, 51.650 207.412 C 49.503 209.100, 50.249 211, 53.059 211 C 55.608 211, 55.564 213.040, 53 213.710 C 48.575 214.867, 51.376 215.542, 56.848 214.637 C 60.065 214.105, 63.552 214.002, 64.598 214.409 C 66.246 215.051, 66.032 215.360, 63 216.726 C 61.075 217.592, 58.876 218.346, 58.112 218.401 C 57.349 218.455, 56.224 219.316, 55.612 220.313 C 54.701 221.797, 54.952 222.502, 57 224.208 C 58.634 225.569, 59.067 226.442, 58.250 226.728 C 57.562 226.969, 57 227.523, 57 227.959 C 57 228.395, 59.845 227.719, 63.322 226.457 C 67.309 225.010, 70.161 224.482, 71.044 225.027 C 72.230 225.760, 72.219 225.960, 70.972 226.336 C 65.244 228.062, 59.716 230.405, 60.644 230.715 C 61.255 230.918, 64.107 230.191, 66.982 229.099 C 72.874 226.860, 74.153 227.242, 77.755 232.312 C 80.326 235.931, 79.428 237.575, 75.429 236.571 C 73.388 236.059, 72.996 235.604, 73.855 234.745 C 77.026 231.574, 72.726 229.013, 67.542 230.984 C 64.491 232.144, 61.862 234.967, 62.648 236.239 C 63.545 237.691, 65 236.990, 65 235.107 C 65 233.032, 66.853 232, 70.582 232 C 73.890 232, 73.619 233.629, 70 235.500 C 66.636 237.239, 65.985 238.457, 68.916 237.527 C 72.870 236.272, 72.482 239.836, 68.500 241.347 C 67.950 241.555, 67.786 242.036, 68.135 242.414 C 68.484 242.793, 71.409 241.749, 74.635 240.094 C 79.518 237.590, 80.724 237.309, 81.838 238.416 C 82.954 239.526, 82.954 240.101, 81.839 241.886 C 80.834 243.495, 79.670 243.960, 77.138 243.762 C 72.373 243.391, 70.516 246.335, 73.894 248.905 C 76.305 250.739, 76.088 253, 73.500 253 C 72.740 253, 71.810 253.498, 71.434 254.107 C 70.320 255.909, 74.811 254.179, 82.270 249.933 C 86.513 247.517, 89.677 246.323, 90.747 246.733 C 91.687 247.094, 89.990 244.425, 86.977 240.803 C 72.731 223.675, 67.015 215.736, 67.005 213.064 C 67.002 212.275, 67.948 210.620, 69.107 209.386 C 70.266 208.152, 71 206.548, 70.738 205.821 C 70.440 204.993, 69.780 205.526, 68.971 207.250 C 67.277 210.857, 66.253 210.722, 65.175 206.750 C 64.082 202.721, 64.576 201.703, 66.995 202.997 C 69.924 204.565, 71.497 204.304, 70 202.500 C 69.315 201.675, 67.478 201, 65.916 201 C 63.411 201, 62.951 200.500, 62.004 196.750 C 60.406 190.415, 59.115 187.811, 57.937 188.539 C 57.334 188.911, 57.156 190.434, 57.521 192.095 C 58.429 196.231, 56.073 195.813, 53.211 191.330 C 51.952 189.358, 51.052 187.668, 51.211 187.575 C 51.370 187.481, 52.798 186.846, 54.384 186.163 C 57.246 184.930, 57.263 184.871, 56.611 178.508 C 56.014 172.684, 56.144 171.993, 58.025 170.987 C 60.424 169.703, 62.207 165.702, 61.362 163.500 C 61.041 162.666, 59.704 161.713, 58.390 161.383 C 56.703 160.960, 56 160.079, 56 158.392 C 56 155.497, 54.379 155.231, 53.506 157.982 M 307.348 156.754 C 307.719 157.355, 310.381 158.631, 313.262 159.589 C 318.872 161.454, 318.730 161.672, 310.750 163.432 C 309.238 163.765, 308 164.413, 308 164.872 C 308 165.822, 321.040 163.175, 322.372 161.955 C 322.852 161.515, 320.377 160.260, 316.872 159.166 C 313.367 158.071, 309.639 156.834, 308.586 156.418 C 307.304 155.910, 306.895 156.021, 307.348 156.754 M 277.079 159.750 C 277.036 161.537, 277.450 163, 278 163 C 278.550 163, 279 162.264, 279 161.365 C 279 160.225, 279.676 160.604, 281.232 162.615 C 282.459 164.202, 283.809 165.650, 284.232 165.833 C 284.654 166.017, 285 166.778, 285 167.524 C 285 168.271, 285.499 169.190, 286.109 169.568 C 287.921 170.687, 285.993 161.716, 284.129 160.352 C 282.901 159.455, 282.334 159.451, 281.772 160.335 C 281.224 161.196, 281.027 161.174, 281.015 160.250 C 281.007 159.563, 280.363 159, 279.583 159 C 278.804 159, 277.940 158.438, 277.662 157.750 C 277.385 157.063, 277.122 157.963, 277.079 159.750 M 185 162.819 C 185 165.126, 184.369 167.279, 183.476 168.020 C 181.819 169.395, 181.762 169.371, 180.305 166.657 C 179.492 165.142, 178.767 166.388, 176.234 173.657 C 174.539 178.520, 172.850 183.714, 172.481 185.197 C 171.609 188.702, 173.516 194.598, 176.945 199 C 178.444 200.925, 179.979 203.738, 180.355 205.250 C 181.272 208.940, 182.682 208.724, 183.553 204.760 C 183.944 202.978, 185.274 200.165, 186.508 198.510 C 191.283 192.105, 192.353 183.396, 189.579 173.500 C 188.808 170.750, 187.873 166.590, 187.502 164.255 C 186.620 158.713, 185 157.783, 185 162.819 M 288.086 162.500 C 288.055 163.600, 288.467 165.175, 289 166 C 289.862 167.333, 289.963 167.333, 289.914 166 C 289.884 165.175, 289.473 163.600, 289 162.500 L 288.141 160.500 288.086 162.500 M 0.422 182 C 0.422 193.275, 0.568 197.887, 0.746 192.250 C 0.924 186.613, 0.924 177.387, 0.746 171.750 C 0.568 166.113, 0.422 170.725, 0.422 182 M 55.745 163.604 C 54.821 165.098, 56.160 170.113, 57.375 169.709 C 57.994 169.503, 58.626 168.688, 58.779 167.898 C 59.129 166.093, 56.503 162.377, 55.745 163.604 M 44.022 165.750 C 44.034 166.713, 44.931 168.625, 46.015 170 C 47.611 172.025, 48.159 172.232, 48.900 171.091 C 50.388 168.798, 48.005 164, 45.378 164 C 44.620 164, 44.010 164.787, 44.022 165.750 M 307 170.203 C 307 170.641, 310.712 170.948, 315.250 170.884 C 324.504 170.754, 323.881 170.286, 313.750 169.758 C 310.038 169.564, 307 169.764, 307 170.203 M 80 172 C 80 172.550, 80.450 173, 81 173 C 81.550 173, 82 172.550, 82 172 C 82 171.450, 81.550 171, 81 171 C 80.450 171, 80 171.450, 80 172 M 306.434 176.893 C 306.810 177.502, 308.591 178, 310.392 178 C 315.578 178, 315.542 179.322, 310.311 180.978 C 302.536 183.438, 303.653 184.356, 317 186.476 C 319.456 186.866, 318.860 186.473, 315 185.157 C 309.041 183.126, 309.189 182.905, 318 180.692 L 323.500 179.310 317.500 178.106 C 305.702 175.738, 305.721 175.740, 306.434 176.893 M 48.769 182.429 C 48.408 184.314, 48.783 185.114, 50.244 185.577 C 52.953 186.437, 54.786 184.471, 53.370 182.222 C 51.642 179.478, 49.313 179.583, 48.769 182.429 M 47.676 188.658 C 46.611 189.722, 46.856 190.468, 49.039 192.811 C 51.342 195.283, 53 195.644, 53 193.674 C 53 191.958, 48.560 187.774, 47.676 188.658 M 306.998 189.021 C 311.567 189.996, 316.051 192.652, 316.770 194.811 C 317.336 196.509, 310.112 196.279, 307 194.500 C 304.087 192.835, 303 192.662, 303 193.863 C 303 195.372, 313.358 198.078, 316.629 197.424 C 324.064 195.937, 316.917 189.106, 307.189 188.401 L 302.500 188.061 306.998 189.021 M 219.800 194.868 C 218.287 195.430, 218.434 196.079, 221.132 200.750 C 222.800 203.637, 224.550 206, 225.020 206 C 226.111 206, 231.369 196.404, 230.873 195.319 C 230.419 194.326, 222.160 193.990, 219.800 194.868 M 128.416 196.743 C 127.681 197.256, 128.277 199.581, 130.266 203.964 L 133.199 210.428 138.558 204.464 C 141.505 201.184, 143.787 198.050, 143.628 197.500 C 143.286 196.312, 129.981 195.650, 128.416 196.743 M 257.506 197.991 C 257.133 198.594, 257.313 199.672, 257.905 200.386 C 258.498 201.100, 258.649 202.042, 258.241 202.479 C 257.834 202.916, 258.175 203.062, 259 202.804 C 260.759 202.252, 261.032 197.844, 259.342 197.281 C 258.705 197.068, 257.878 197.388, 257.506 197.991 M 262 198.358 C 262 199.196, 262.498 200.190, 263.107 200.566 C 263.880 201.044, 263.805 201.536, 262.857 202.201 C 261.759 202.971, 261.786 203.074, 263 202.743 C 264.811 202.249, 265.011 197.837, 263.250 197.250 C 262.563 197.021, 262 197.519, 262 198.358 M 266.605 197.614 C 267.212 197.865, 267.548 199.292, 267.350 200.785 C 267.152 202.278, 267.279 202.825, 267.631 202 C 267.982 201.175, 268.675 199.713, 269.170 198.750 C 269.904 197.324, 269.647 197.015, 267.785 197.079 C 266.528 197.122, 265.997 197.363, 266.605 197.614 M 253.393 199.582 C 253.727 200.452, 254 201.352, 254 201.582 C 254 201.812, 254.408 202, 254.906 202 C 255.405 202, 255.577 201.100, 255.290 200 C 255.002 198.900, 254.321 198, 253.776 198 C 253.232 198, 253.059 198.712, 253.393 199.582 M 95 200.924 C 96.333 201.880, 96.333 202.120, 95 203.076 C 93.667 204.033, 93.667 204.107, 95 203.743 C 95.825 203.518, 96.500 202.733, 96.500 202 C 96.500 201.267, 95.825 200.482, 95 200.257 C 93.667 199.893, 93.667 199.967, 95 200.924 M 102.360 202.573 C 102.437 203.907, 103.063 204.999, 103.750 204.999 C 105.457 205, 105.339 201.344, 103.610 200.681 C 102.641 200.309, 102.263 200.881, 102.360 202.573 M 109.250 200.662 C 107.839 201.232, 107.520 205, 108.883 205 C 109.369 205, 109.982 203.875, 110.245 202.500 C 110.508 201.125, 110.673 200.036, 110.611 200.079 C 110.550 200.122, 109.938 200.385, 109.250 200.662 M 158.266 200.882 C 154.961 201.514, 151 204.249, 151 205.900 C 151 206.406, 152.788 209.082, 154.973 211.846 C 162.693 221.613, 177.893 226.208, 190.428 222.564 C 196.653 220.754, 204.164 214.707, 208.104 208.331 C 210.741 204.065, 210.099 202.399, 205.305 201.068 C 200.473 199.726, 190 199.680, 190 201 C 190 201.550, 192.588 202.045, 195.750 202.100 C 198.912 202.155, 202.611 202.509, 203.969 202.888 C 206.419 203.570, 206.412 203.587, 203.127 204.947 C 200.973 205.840, 199.585 205.968, 199.158 205.313 C 198.354 204.084, 189.630 202.821, 187.524 203.629 C 186.686 203.951, 186 205.123, 186 206.235 C 186 208.331, 186.883 208.354, 196 206.490 C 197.860 206.110, 197.603 206.417, 195 207.689 C 190.238 210.016, 175.295 210.513, 168 208.587 L 162.500 207.135 169.619 207.684 C 177.848 208.318, 180.251 206.839, 174.736 204.534 C 171.012 202.978, 160.019 203.506, 158.851 205.296 C 158.494 205.844, 157.406 205.986, 156.434 205.613 C 153.075 204.324, 156.529 202.974, 164.817 202.335 C 169.318 201.988, 173 201.320, 173 200.852 C 173 199.903, 163.283 199.922, 158.266 200.882 M 98.639 201.694 C 97.444 202.889, 97.994 205, 99.500 205 C 100.325 205, 101 204.352, 101 203.559 C 101 201.888, 99.573 200.761, 98.639 201.694 M 301 206.640 C 306.083 207.572, 306.509 207.919, 304.738 209.691 C 303.247 211.181, 302.899 211.164, 300.310 209.480 C 297.893 207.907, 297.693 207.887, 298.882 209.337 C 301.040 211.969, 309.615 218.004, 311.134 217.960 C 311.885 217.938, 311.262 217.249, 309.750 216.428 C 306.822 214.840, 306.358 213.069, 308.042 209.922 C 308.897 208.324, 309.451 208.171, 311.128 209.068 C 312.252 209.670, 313.386 209.948, 313.648 209.685 C 314.729 208.605, 308.152 206.411, 303.500 206.300 C 300.750 206.235, 299.625 206.388, 301 206.640 M 55.500 210 C 57.393 212.092, 60 212.692, 60 211.035 C 60 209.939, 56.749 208, 54.911 208 C 54.146 208, 54.366 208.747, 55.500 210 M 295.750 214.080 C 292.446 216.005, 293.701 219.281, 299.094 222.808 C 301.876 224.627, 304.679 225.940, 305.323 225.726 C 305.973 225.509, 305.495 224.800, 304.247 224.132 C 300.111 221.919, 301.616 220.684, 307.750 221.258 L 313.500 221.795 308.561 220.082 C 305.845 219.140, 303.410 217.723, 303.149 216.934 C 302.599 215.269, 299.952 213.064, 298.500 213.062 C 297.950 213.061, 296.712 213.519, 295.750 214.080 M 297.176 215.224 C 295.446 216.954, 295.740 218.791, 297.934 219.965 C 300.680 221.434, 301 221.294, 301 218.622 C 301 215.542, 298.807 213.593, 297.176 215.224 M 62.691 220.075 C 62.238 221.807, 61.817 221.972, 60.140 221.075 C 57.678 219.757, 57 219.726, 57 220.929 C 57 222.518, 60.052 225, 62.006 225 C 63.031 225, 65.067 224.545, 66.529 223.989 L 69.189 222.978 66.844 220.506 C 63.976 217.482, 63.385 217.421, 62.691 220.075 M 291.004 225.639 C 291.010 226.989, 294.457 232.214, 297.419 235.361 C 300.347 238.474, 302.420 238.227, 299.592 235.102 C 298.113 233.468, 298.054 232.880, 299.182 231.034 C 300.204 229.362, 301.174 228.990, 303.500 229.380 C 306.023 229.802, 305.827 229.581, 302.268 227.990 C 297.219 225.732, 290.999 224.434, 291.004 225.639 M 134.511 226.748 C 124.133 227.091, 122.502 227.577, 123.936 229.897 C 124.657 231.063, 127.014 231.079, 139.145 229.998 C 156.708 228.434, 169.176 229.248, 175.322 232.360 C 179.602 234.526, 179.644 234.528, 182.917 232.616 C 186.567 230.485, 201.848 229.133, 223.250 229.047 C 230.725 229.017, 235 228.620, 235 227.955 C 235 226.793, 188.800 227.410, 185.422 228.617 C 184.365 228.995, 182.708 229.985, 181.740 230.816 C 180.150 232.182, 179.747 232.111, 177.586 230.081 C 173.319 226.072, 167.834 225.648, 134.511 226.748 M 294.767 229.211 C 296.403 230.848, 297.270 231.130, 298.102 230.298 C 299.739 228.661, 298.288 227, 295.219 227 L 292.556 227 294.767 229.211 M 288.313 232.805 C 292.820 237.509, 291.017 240.244, 286.318 235.829 C 285.048 234.636, 283.759 233.907, 283.456 234.211 C 283.152 234.515, 285.336 236.841, 288.310 239.382 C 293.869 244.131, 296.727 245.565, 293.479 241.976 C 290.782 238.997, 292.910 237.239, 296.424 239.542 C 301.460 242.842, 299.833 240.439, 293.507 235.233 C 286.585 229.538, 284.045 228.350, 288.313 232.805 M 142.250 231.773 C 127.233 231.997, 124 232.298, 124 233.473 C 124 234.680, 126.898 234.808, 142.791 234.300 C 162.866 233.659, 169.521 234.448, 175.757 238.208 C 179.012 240.170, 179.017 240.170, 183.478 238.011 C 188.342 235.656, 200.322 234.133, 215.500 233.939 C 225.691 233.810, 234.996 232.770, 233.500 231.928 C 232.950 231.619, 222.375 231.629, 210 231.950 C 188.587 232.505, 187.304 232.649, 183.434 234.933 L 179.369 237.332 176.277 235.047 C 172.261 232.077, 165.486 231.426, 142.250 231.773 M 147.558 238.250 C 149.988 246.146, 175.741 298.937, 177.183 298.980 C 177.881 299, 182.270 291.360, 189.233 278 C 191.383 273.875, 194.414 268.250, 195.969 265.500 C 197.523 262.750, 201.506 255.213, 204.818 248.750 L 210.841 237 204.171 237.015 C 200.502 237.024, 197.032 237.361, 196.460 237.765 C 195.888 238.169, 191.662 246.025, 187.070 255.222 C 182.477 264.420, 178.390 271.741, 177.987 271.492 C 177.313 271.076, 175.506 266.984, 166.727 246 C 165.001 241.875, 163.176 237.938, 162.672 237.250 C 162.081 236.444, 159.110 236, 154.310 236 C 147.051 236, 146.883 236.056, 147.558 238.250 M 282.590 240.750 C 283.197 245.153, 282.227 246.183, 280 243.500 C 279.315 242.675, 278.248 242.005, 277.628 242.011 C 276.335 242.024, 287.028 251.891, 288.405 251.957 C 288.903 251.981, 288.564 251.176, 287.653 250.169 C 286.741 249.162, 286.297 248.037, 286.664 247.669 C 287.764 246.569, 292.512 246.912, 293.783 248.183 C 294.434 248.834, 295.268 249.065, 295.637 248.696 C 296.393 247.941, 289.912 245, 287.491 245 C 286.614 245, 285.052 243.120, 283.961 240.750 L 282.004 236.500 282.590 240.750 M 81.754 243.465 C 80.793 244.786, 78.857 246.009, 77.450 246.183 C 75.090 246.476, 75.006 246.652, 76.349 248.476 C 77.792 250.436, 77.843 250.433, 82.402 248.156 C 87.091 245.814, 87.935 244.335, 85.800 242.200 C 84.167 240.567, 83.770 240.691, 81.754 243.465 M 276.277 248.171 C 277.939 248.778, 279.845 250.737, 281.027 253.052 C 283.443 257.789, 283.450 258, 281.187 258 C 279.170 258, 274.676 253.578, 273.593 250.528 C 273.084 249.095, 272.680 248.899, 272.116 249.812 C 271.689 250.503, 270.622 250.792, 269.744 250.455 C 268.697 250.054, 267.554 250.750, 266.419 252.483 L 264.690 255.123 270.061 260.561 C 273.015 263.553, 275.881 266, 276.430 266 C 276.979 266, 276.699 265.271, 275.808 264.380 C 274.530 263.102, 274.398 262.155, 275.184 259.901 C 276.163 257.092, 276.233 257.069, 279.162 258.584 C 281.418 259.750, 282.477 259.849, 283.512 258.990 C 286.895 256.182, 280.005 246.763, 274.800 247.079 C 274.085 247.122, 274.750 247.614, 276.277 248.171 M 267.667 252.667 C 266.229 254.104, 267.125 256.953, 269.635 258.927 C 271.084 260.067, 272.659 261, 273.135 261 C 274.125 261, 274.301 255.947, 273.393 253.582 C 272.789 252.009, 268.940 251.394, 267.667 252.667 M 97.797 263.733 C 94.505 264.498, 94.436 270.186, 97.704 271.440 C 99.630 272.179, 102 270.319, 102 268.069 C 102 265.595, 99.754 263.278, 97.797 263.733 M 116.303 269.653 C 115.954 270.562, 116.185 273.150, 116.816 275.403 C 117.447 277.656, 118.708 282.650, 119.619 286.500 C 124.402 306.719, 124.644 307.500, 126.145 307.516 C 127.937 307.536, 136.220 314.375, 143.392 321.758 C 148.504 327.020, 150 327.959, 150 325.903 C 150 324.207, 142.222 315.735, 138.613 313.500 C 136.837 312.400, 133.321 309.798, 130.801 307.719 C 126.897 304.498, 126.117 303.238, 125.537 299.219 C 124.131 289.476, 123.889 288.170, 122.104 280.676 C 121.098 276.454, 120.585 273, 120.963 273 C 122.313 273, 125.930 277.588, 127.452 281.232 C 128.304 283.269, 129 286.975, 129 289.468 C 129 294.198, 130.117 295.228, 132.017 292.250 C 132.930 290.818, 133.035 291.088, 132.595 293.734 C 132.062 296.935, 132.141 297.009, 140.289 300.844 C 144.817 302.976, 149.135 305.458, 149.884 306.360 C 150.632 307.262, 151.865 308, 152.622 308 C 154.308 308, 154.424 305.824, 152.824 304.224 C 150.049 301.449, 150.145 290, 152.943 290 C 153.327 290, 156.032 292.983, 158.954 296.630 C 163.884 302.782, 164.429 304.011, 166.521 313.699 L 168.775 324.140 166.488 326.608 C 164.562 328.685, 163.173 329.109, 157.700 329.288 C 154.124 329.404, 151.406 329.837, 151.659 330.250 C 151.911 330.663, 153.216 331, 154.559 331 C 155.902 331, 157 331.505, 157 332.122 C 157 332.854, 157.588 332.766, 158.687 331.872 C 160.182 330.657, 160.291 330.722, 159.644 332.444 C 158.932 334.340, 158.964 334.342, 160.957 332.539 C 163.174 330.533, 163.783 331.690, 161.752 334.050 C 161.065 334.847, 162.579 333.554, 165.116 331.175 C 169.555 327.013, 169.750 326.936, 170.322 329.123 C 170.649 330.373, 170.430 331.982, 169.836 332.698 C 169.048 333.647, 169.088 334, 169.985 334 C 170.667 334, 170.958 334.668, 170.638 335.500 C 170.322 336.325, 170.554 337, 171.154 337 C 171.831 337, 171.724 337.642, 170.872 338.692 C 169.701 340.136, 169.708 340.259, 170.920 339.528 C 171.983 338.887, 172.180 339.088, 171.706 340.323 C 171.307 341.364, 172.036 342.997, 173.679 344.738 L 176.285 347.500 175.599 343.051 C 174.736 337.454, 170.291 319.034, 168.289 312.761 C 167.458 310.155, 167.038 307.344, 167.356 306.514 C 167.929 305.021, 163.737 297.987, 159.626 293.546 C 158.457 292.283, 156.463 290.092, 155.195 288.677 C 153.928 287.262, 152.282 286.338, 151.537 286.624 C 149.603 287.366, 147.800 292.252, 148.017 296.161 C 148.291 301.094, 148.218 301.189, 145.500 299.408 C 144.031 298.446, 143 296.820, 143 295.467 C 143 291.949, 141.987 290.068, 140.417 290.670 C 139.605 290.982, 139 290.609, 139 289.797 C 139 289.017, 137.680 287.030, 136.067 285.379 C 134.453 283.729, 132.826 281.157, 132.451 279.663 C 131.924 277.560, 131.472 277.193, 130.455 278.038 C 129.454 278.868, 128.844 278.575, 127.906 276.815 C 123.844 269.191, 117.890 265.517, 116.303 269.653 M 256.411 270.498 C 255.569 273.854, 256.524 276, 258.860 276 C 261.214 276, 262.631 271.465, 260.921 269.404 C 259.127 267.243, 257.105 267.734, 256.411 270.498 M 237.249 273.935 C 235.022 275.548, 232.899 277.355, 232.531 277.950 C 232.163 278.546, 231.443 278.774, 230.931 278.457 C 230.419 278.141, 229.990 278.696, 229.978 279.691 C 229.952 281.792, 226.415 286.748, 225.555 285.889 C 225.235 285.569, 225.681 283.614, 226.545 281.545 C 227.410 279.477, 227.926 277.593, 227.693 277.360 C 227.460 277.127, 226.704 278.300, 226.013 279.968 C 225.323 281.636, 224.390 283, 223.942 283 C 223.493 283, 223.373 284.524, 223.675 286.388 C 223.978 288.251, 223.738 290.613, 223.143 291.638 C 222.212 293.240, 222.046 293.012, 221.954 290 L 221.848 286.500 220.500 290 C 219.759 291.925, 219.066 294.625, 218.960 296 C 218.825 297.757, 218.632 297.980, 218.311 296.750 C 217.392 293.236, 216 295.128, 216 299.891 C 216 304.669, 215.906 304.820, 211.980 306.391 C 205.317 309.057, 205.231 308.972, 205.373 299.750 C 205.499 291.538, 203.998 286.135, 201.350 285.274 C 200.718 285.068, 197.679 288.561, 194.597 293.034 C 187.938 302.701, 189.354 303.245, 196.481 293.759 C 199.717 289.453, 201.726 287.545, 202.216 288.315 C 203.484 290.310, 203.084 299.510, 201.538 303.892 C 200.734 306.171, 200.315 308.658, 200.607 309.419 C 201.467 311.660, 207.648 312.322, 211.194 310.553 C 212.906 309.699, 214.718 309, 215.220 309 C 215.723 309, 217.623 307.864, 219.444 306.475 C 221.787 304.688, 223.111 302.570, 223.976 299.225 C 225.833 292.038, 227.994 288.238, 233.858 281.843 C 241.188 273.849, 242.390 274.152, 239.426 283.250 C 232.105 305.724, 231.406 307.212, 224.820 314.346 C 221.344 318.112, 217.257 322.812, 215.737 324.792 C 212.875 328.521, 208.404 331, 204.542 331 C 202.607 331, 196.038 328.998, 189.500 326.415 C 185.318 324.764, 190.330 329.212, 194.819 331.137 C 199.855 333.295, 203.681 333.476, 209.222 331.815 C 212.291 330.896, 214.042 329.384, 217.041 325.065 C 219.166 322.004, 223.612 316.821, 226.921 313.547 C 231.596 308.921, 233.724 305.763, 236.468 299.374 C 238.411 294.852, 240 290.256, 240 289.159 C 240 288.063, 240.900 285.066, 242 282.500 C 244.332 277.059, 244.543 273.695, 242.649 272.123 C 241.611 271.262, 240.358 271.682, 237.249 273.935 M 131 287.441 C 131 288.234, 131.450 289.160, 132 289.500 C 132.550 289.840, 133 289.191, 133 288.059 C 133 286.927, 132.550 286, 132 286 C 131.450 286, 131 286.648, 131 287.441 M 136 292.559 C 136 294.677, 136.405 295.868, 137 295.500 C 137.550 295.160, 138 293.559, 138 291.941 C 138 290.323, 137.550 289, 137 289 C 136.450 289, 136 290.602, 136 292.559 M 140.158 296 C 140.158 297.375, 140.385 297.938, 140.662 297.250 C 140.940 296.563, 140.940 295.438, 140.662 294.750 C 140.385 294.063, 140.158 294.625, 140.158 296 M 187.598 313.122 C 186.985 321.244, 187.219 324.205, 188.373 322.917 C 189.277 321.908, 190.078 304, 189.219 304 C 188.706 304, 187.977 308.105, 187.598 313.122 M 166.981 331.523 C 165.924 332.796, 165.986 332.943, 167.359 332.416 C 168.261 332.069, 169 331.384, 169 330.893 C 169 329.607, 168.421 329.788, 166.981 331.523 M 186.963 332.930 C 187.531 333.992, 189.352 335.827, 191.010 337.007 C 195.025 339.866, 205.086 340.330, 207.650 337.774 C 209.962 335.468, 208.941 334.690, 205.389 336.052 C 201.497 337.544, 195.308 336.445, 190.771 333.456 C 186.276 330.495, 185.610 330.403, 186.963 332.930 M 153.141 339.500 C 153.141 342.800, 153.463 346.317, 153.856 347.315 C 154.531 349.026, 154.682 349.009, 156.480 347.022 C 158.111 345.219, 158.142 345.008, 156.694 345.564 C 154.368 346.457, 154.572 345.488, 157.250 342.925 L 159.500 340.773 157.250 341.454 C 155.378 342.020, 154.988 341.746, 154.930 339.817 C 154.891 338.543, 154.473 336.600, 154 335.500 C 153.394 334.090, 153.141 335.270, 153.141 339.500 M 185 337.715 C 185 339.184, 191.301 344.802, 194.153 345.877 C 197.022 346.958, 209.773 345.627, 211.315 344.085 C 212.895 342.505, 210.551 342.215, 204.769 343.276 C 197.961 344.525, 192.699 343.300, 188.045 339.384 C 186.370 337.975, 185 337.224, 185 337.715" stroke="none" fill="#f5f3f6" fill-rule="evenodd"/></svg>